<?xml version="1.0" encoding="utf-8" standalone="no"?>
<!DOCTYPE svg PUBLIC "-//W3C//DTD SVG 1.1//EN"
  "http://www.w3.org/Graphics/SVG/1.1/DTD/svg11.dtd">
<svg xmlns:xlink="http://www.w3.org/1999/xlink" width="792pt" height="324pt" viewBox="0 0 792 324" xmlns="http://www.w3.org/2000/svg" version="1.1">
 <metadata>
  <rdf:RDF xmlns:dc="http://purl.org/dc/elements/1.1/" xmlns:cc="http://creativecommons.org/ns#" xmlns:rdf="http://www.w3.org/1999/02/22-rdf-syntax-ns#">
   <cc:Work>
    <dc:type rdf:resource="http://purl.org/dc/dcmitype/StillImage"/>
    <dc:date>2026-05-17T11:09:45.574286</dc:date>
    <dc:format>image/svg+xml</dc:format>
    <dc:creator>
     <cc:Agent>
      <dc:title>Matplotlib v3.10.9, https://matplotlib.org/</dc:title>
     </cc:Agent>
    </dc:creator>
   </cc:Work>
  </rdf:RDF>
 </metadata>
 <defs>
  <style type="text/css">*{stroke-linejoin: round; stroke-linecap: butt}</style>
 </defs>
 <g id="figure_1">
  <g id="patch_1">
   <path d="M 0 324 
L 792 324 
L 792 0 
L 0 0 
z
" style="fill: #ffffff"/>
  </g>
  <g id="axes_1">
   <g id="patch_2">
    <path d="M 24.88 279.16 
L 781.2 279.16 
L 781.2 26.88 
L 24.88 26.88 
z
" style="fill: #ffffff"/>
   </g>
   <g id="patch_3">
    <path d="M 24.88 279.16 
L 132.925714 279.16 
L 132.925714 26.88 
L 24.88 26.88 
z
" clip-path="url(#p07c341a4de)" style="fill: #8ecae6; opacity: 0.35; stroke: #8ecae6; stroke-linejoin: miter"/>
   </g>
   <g id="patch_4">
    <path d="M 132.925714 279.16 
L 159.937143 279.16 
L 159.937143 26.88 
L 132.925714 26.88 
z
" clip-path="url(#p07c341a4de)" style="fill: #a8dadc; opacity: 0.35; stroke: #a8dadc; stroke-linejoin: miter"/>
   </g>
   <g id="patch_5">
    <path d="M 159.937143 279.16 
L 222.063429 279.16 
L 222.063429 26.88 
L 159.937143 26.88 
z
" clip-path="url(#p07c341a4de)" style="fill: #bde0fe; opacity: 0.35; stroke: #bde0fe; stroke-linejoin: miter"/>
   </g>
   <g id="patch_6">
    <path d="M 222.063429 279.16 
L 230.166857 279.16 
L 230.166857 26.88 
L 222.063429 26.88 
z
" clip-path="url(#p07c341a4de)" style="fill: #ffd166; opacity: 0.35; stroke: #ffd166; stroke-linejoin: miter"/>
   </g>
   <g id="patch_7">
    <path d="M 230.166857 279.16 
L 267.982857 279.16 
L 267.982857 26.88 
L 230.166857 26.88 
z
" clip-path="url(#p07c341a4de)" style="fill: #cdb4db; opacity: 0.35; stroke: #cdb4db; stroke-linejoin: miter"/>
   </g>
   <g id="patch_8">
    <path d="M 267.982857 279.16 
L 349.017143 279.16 
L 349.017143 26.88 
L 267.982857 26.88 
z
" clip-path="url(#p07c341a4de)" style="fill: #ffadad; opacity: 0.35; stroke: #ffadad; stroke-linejoin: miter"/>
   </g>
   <g id="patch_9">
    <path d="M 349.017143 279.16 
L 511.085714 279.16 
L 511.085714 26.88 
L 349.017143 26.88 
z
" clip-path="url(#p07c341a4de)" style="fill: #ff6b6b; opacity: 0.35; stroke: #ff6b6b; stroke-linejoin: miter"/>
   </g>
   <g id="patch_10">
    <path d="M 511.085714 279.16 
L 592.12 279.16 
L 592.12 26.88 
L 511.085714 26.88 
z
" clip-path="url(#p07c341a4de)" style="fill: #ff476f; opacity: 0.35; stroke: #ff476f; stroke-linejoin: miter"/>
   </g>
   <g id="patch_11">
    <path d="M 592.12 279.16 
L 673.154286 279.16 
L 673.154286 26.88 
L 592.12 26.88 
z
" clip-path="url(#p07c341a4de)" style="fill: #d00000; opacity: 0.35; stroke: #d00000; stroke-linejoin: miter"/>
   </g>
   <g id="patch_12">
    <path d="M 673.154286 279.16 
L 727.177143 279.16 
L 727.177143 26.88 
L 673.154286 26.88 
z
" clip-path="url(#p07c341a4de)" style="fill: #9d0208; opacity: 0.35; stroke: #9d0208; stroke-linejoin: miter"/>
   </g>
   <g id="patch_13">
    <path d="M 727.177143 279.16 
L 781.2 279.16 
L 781.2 26.88 
L 727.177143 26.88 
z
" clip-path="url(#p07c341a4de)" style="fill: #370617; opacity: 0.35; stroke: #370617; stroke-linejoin: miter"/>
   </g>
   <g id="matplotlib.axis_1">
    <g id="xtick_1">
     <g id="line2d_1">
      <defs>
       <path id="m94ff7322f4" d="M 0 0 
L 0 3.5 
" style="stroke: #000000; stroke-width: 0.8"/>
      </defs>
      <g>
       <use xlink:href="#m94ff7322f4" x="78.902857" y="279.16" style="stroke: #000000; stroke-width: 0.8"/>
      </g>
     </g>
     <g id="text_1">
      <!-- −5 -->
      <g transform="translate(71.531763 293.758438) scale(0.1 -0.1)">
       <defs>
        <path id="DejaVuSans-2212" d="M 678 2272 
L 4684 2272 
L 4684 1741 
L 678 1741 
L 678 2272 
z
" transform="scale(0.015625)"/>
        <path id="DejaVuSans-35" d="M 691 4666 
L 3169 4666 
L 3169 4134 
L 1269 4134 
L 1269 2991 
Q 1406 3038 1543 3061 
Q 1681 3084 1819 3084 
Q 2600 3084 3056 2656 
Q 3513 2228 3513 1497 
Q 3513 744 3044 326 
Q 2575 -91 1722 -91 
Q 1428 -91 1123 -41 
Q 819 9 494 109 
L 494 744 
Q 775 591 1075 516 
Q 1375 441 1709 441 
Q 2250 441 2565 725 
Q 2881 1009 2881 1497 
Q 2881 1984 2565 2268 
Q 2250 2553 1709 2553 
Q 1456 2553 1204 2497 
Q 953 2441 691 2322 
L 691 4666 
z
" transform="scale(0.015625)"/>
       </defs>
       <use xlink:href="#DejaVuSans-2212"/>
       <use xlink:href="#DejaVuSans-35" transform="translate(83.789062 0)"/>
      </g>
     </g>
    </g>
    <g id="xtick_2">
     <g id="line2d_2">
      <g>
       <use xlink:href="#m94ff7322f4" x="213.96" y="279.16" style="stroke: #000000; stroke-width: 0.8"/>
      </g>
     </g>
     <g id="text_2">
      <!-- 0 -->
      <g transform="translate(210.77875 293.758438) scale(0.1 -0.1)">
       <defs>
        <path id="DejaVuSans-30" d="M 2034 4250 
Q 1547 4250 1301 3770 
Q 1056 3291 1056 2328 
Q 1056 1369 1301 889 
Q 1547 409 2034 409 
Q 2525 409 2770 889 
Q 3016 1369 3016 2328 
Q 3016 3291 2770 3770 
Q 2525 4250 2034 4250 
z
M 2034 4750 
Q 2819 4750 3233 4129 
Q 3647 3509 3647 2328 
Q 3647 1150 3233 529 
Q 2819 -91 2034 -91 
Q 1250 -91 836 529 
Q 422 1150 422 2328 
Q 422 3509 836 4129 
Q 1250 4750 2034 4750 
z
" transform="scale(0.015625)"/>
       </defs>
       <use xlink:href="#DejaVuSans-30"/>
      </g>
     </g>
    </g>
    <g id="xtick_3">
     <g id="line2d_3">
      <g>
       <use xlink:href="#m94ff7322f4" x="349.017143" y="279.16" style="stroke: #000000; stroke-width: 0.8"/>
      </g>
     </g>
     <g id="text_3">
      <!-- 5 -->
      <g transform="translate(345.835893 293.758438) scale(0.1 -0.1)">
       <use xlink:href="#DejaVuSans-35"/>
      </g>
     </g>
    </g>
    <g id="xtick_4">
     <g id="line2d_4">
      <g>
       <use xlink:href="#m94ff7322f4" x="484.074286" y="279.16" style="stroke: #000000; stroke-width: 0.8"/>
      </g>
     </g>
     <g id="text_4">
      <!-- 10 -->
      <g transform="translate(477.711786 293.758438) scale(0.1 -0.1)">
       <defs>
        <path id="DejaVuSans-31" d="M 794 531 
L 1825 531 
L 1825 4091 
L 703 3866 
L 703 4441 
L 1819 4666 
L 2450 4666 
L 2450 531 
L 3481 531 
L 3481 0 
L 794 0 
L 794 531 
z
" transform="scale(0.015625)"/>
       </defs>
       <use xlink:href="#DejaVuSans-31"/>
       <use xlink:href="#DejaVuSans-30" transform="translate(63.623047 0)"/>
      </g>
     </g>
    </g>
    <g id="xtick_5">
     <g id="line2d_5">
      <g>
       <use xlink:href="#m94ff7322f4" x="619.131429" y="279.16" style="stroke: #000000; stroke-width: 0.8"/>
      </g>
     </g>
     <g id="text_5">
      <!-- 15 -->
      <g transform="translate(612.768929 293.758438) scale(0.1 -0.1)">
       <use xlink:href="#DejaVuSans-31"/>
       <use xlink:href="#DejaVuSans-35" transform="translate(63.623047 0)"/>
      </g>
     </g>
    </g>
    <g id="xtick_6">
     <g id="line2d_6">
      <g>
       <use xlink:href="#m94ff7322f4" x="754.188571" y="279.16" style="stroke: #000000; stroke-width: 0.8"/>
      </g>
     </g>
     <g id="text_6">
      <!-- 20 -->
      <g transform="translate(747.826071 293.758438) scale(0.1 -0.1)">
       <defs>
        <path id="DejaVuSans-32" d="M 1228 531 
L 3431 531 
L 3431 0 
L 469 0 
L 469 531 
Q 828 903 1448 1529 
Q 2069 2156 2228 2338 
Q 2531 2678 2651 2914 
Q 2772 3150 2772 3378 
Q 2772 3750 2511 3984 
Q 2250 4219 1831 4219 
Q 1534 4219 1204 4116 
Q 875 4013 500 3803 
L 500 4441 
Q 881 4594 1212 4672 
Q 1544 4750 1819 4750 
Q 2544 4750 2975 4387 
Q 3406 4025 3406 3419 
Q 3406 3131 3298 2873 
Q 3191 2616 2906 2266 
Q 2828 2175 2409 1742 
Q 1991 1309 1228 531 
z
" transform="scale(0.015625)"/>
       </defs>
       <use xlink:href="#DejaVuSans-32"/>
       <use xlink:href="#DejaVuSans-30" transform="translate(63.623047 0)"/>
      </g>
     </g>
    </g>
    <g id="text_7">
     <!-- $\log_{10}(E\,/\,\mathrm{eV})$ -->
     <g transform="translate(373.09 307.438125) scale(0.1 -0.1)">
      <defs>
       <path id="DejaVuSans-6c" d="M 603 4863 
L 1178 4863 
L 1178 0 
L 603 0 
L 603 4863 
z
" transform="scale(0.015625)"/>
       <path id="DejaVuSans-6f" d="M 1959 3097 
Q 1497 3097 1228 2736 
Q 959 2375 959 1747 
Q 959 1119 1226 758 
Q 1494 397 1959 397 
Q 2419 397 2687 759 
Q 2956 1122 2956 1747 
Q 2956 2369 2687 2733 
Q 2419 3097 1959 3097 
z
M 1959 3584 
Q 2709 3584 3137 3096 
Q 3566 2609 3566 1747 
Q 3566 888 3137 398 
Q 2709 -91 1959 -91 
Q 1206 -91 779 398 
Q 353 888 353 1747 
Q 353 2609 779 3096 
Q 1206 3584 1959 3584 
z
" transform="scale(0.015625)"/>
       <path id="DejaVuSans-67" d="M 2906 1791 
Q 2906 2416 2648 2759 
Q 2391 3103 1925 3103 
Q 1463 3103 1205 2759 
Q 947 2416 947 1791 
Q 947 1169 1205 825 
Q 1463 481 1925 481 
Q 2391 481 2648 825 
Q 2906 1169 2906 1791 
z
M 3481 434 
Q 3481 -459 3084 -895 
Q 2688 -1331 1869 -1331 
Q 1566 -1331 1297 -1286 
Q 1028 -1241 775 -1147 
L 775 -588 
Q 1028 -725 1275 -790 
Q 1522 -856 1778 -856 
Q 2344 -856 2625 -561 
Q 2906 -266 2906 331 
L 2906 616 
Q 2728 306 2450 153 
Q 2172 0 1784 0 
Q 1141 0 747 490 
Q 353 981 353 1791 
Q 353 2603 747 3093 
Q 1141 3584 1784 3584 
Q 2172 3584 2450 3431 
Q 2728 3278 2906 2969 
L 2906 3500 
L 3481 3500 
L 3481 434 
z
" transform="scale(0.015625)"/>
       <path id="DejaVuSans-28" d="M 1984 4856 
Q 1566 4138 1362 3434 
Q 1159 2731 1159 2009 
Q 1159 1288 1364 580 
Q 1569 -128 1984 -844 
L 1484 -844 
Q 1016 -109 783 600 
Q 550 1309 550 2009 
Q 550 2706 781 3412 
Q 1013 4119 1484 4856 
L 1984 4856 
z
" transform="scale(0.015625)"/>
       <path id="DejaVuSans-Oblique-45" d="M 1081 4666 
L 4031 4666 
L 3928 4134 
L 1606 4134 
L 1338 2753 
L 3566 2753 
L 3463 2222 
L 1234 2222 
L 909 531 
L 3284 531 
L 3181 0 
L 172 0 
L 1081 4666 
z
" transform="scale(0.015625)"/>
       <path id="DejaVuSans-2f" d="M 1625 4666 
L 2156 4666 
L 531 -594 
L 0 -594 
L 1625 4666 
z
" transform="scale(0.015625)"/>
       <path id="DejaVuSans-65" d="M 3597 1894 
L 3597 1613 
L 953 1613 
Q 991 1019 1311 708 
Q 1631 397 2203 397 
Q 2534 397 2845 478 
Q 3156 559 3463 722 
L 3463 178 
Q 3153 47 2828 -22 
Q 2503 -91 2169 -91 
Q 1331 -91 842 396 
Q 353 884 353 1716 
Q 353 2575 817 3079 
Q 1281 3584 2069 3584 
Q 2775 3584 3186 3129 
Q 3597 2675 3597 1894 
z
M 3022 2063 
Q 3016 2534 2758 2815 
Q 2500 3097 2075 3097 
Q 1594 3097 1305 2825 
Q 1016 2553 972 2059 
L 3022 2063 
z
" transform="scale(0.015625)"/>
       <path id="DejaVuSans-56" d="M 1831 0 
L 50 4666 
L 709 4666 
L 2188 738 
L 3669 4666 
L 4325 4666 
L 2547 0 
L 1831 0 
z
" transform="scale(0.015625)"/>
       <path id="DejaVuSans-29" d="M 513 4856 
L 1013 4856 
Q 1481 4119 1714 3412 
Q 1947 2706 1947 2009 
Q 1947 1309 1714 600 
Q 1481 -109 1013 -844 
L 513 -844 
Q 928 -128 1133 580 
Q 1338 1288 1338 2009 
Q 1338 2731 1133 3434 
Q 928 4138 513 4856 
z
" transform="scale(0.015625)"/>
      </defs>
      <use xlink:href="#DejaVuSans-6c" transform="translate(0 0.015625)"/>
      <use xlink:href="#DejaVuSans-6f" transform="translate(27.783203 0.015625)"/>
      <use xlink:href="#DejaVuSans-67" transform="translate(88.964844 0.015625)"/>
      <use xlink:href="#DejaVuSans-31" transform="translate(153.398438 -16.390625) scale(0.7)"/>
      <use xlink:href="#DejaVuSans-30" transform="translate(197.93457 -16.390625) scale(0.7)"/>
      <use xlink:href="#DejaVuSans-28" transform="translate(261.440754 0.015625)"/>
      <use xlink:href="#DejaVuSans-Oblique-45" transform="translate(300.454426 0.015625)"/>
      <use xlink:href="#DejaVuSans-2f" transform="translate(379.873696 0.015625)"/>
      <use xlink:href="#DejaVuSans-65" transform="translate(429.800779 0.015625)"/>
      <use xlink:href="#DejaVuSans-56" transform="translate(491.324216 0.015625)"/>
      <use xlink:href="#DejaVuSans-29" transform="translate(559.732419 0.015625)"/>
     </g>
    </g>
   </g>
   <g id="matplotlib.axis_2">
    <g id="text_8">
     <!-- relative dN/dE  (schematic) -->
     <g transform="translate(18.800312 221.111406) rotate(-90) scale(0.1 -0.1)">
      <defs>
       <path id="DejaVuSans-72" d="M 2631 2963 
Q 2534 3019 2420 3045 
Q 2306 3072 2169 3072 
Q 1681 3072 1420 2755 
Q 1159 2438 1159 1844 
L 1159 0 
L 581 0 
L 581 3500 
L 1159 3500 
L 1159 2956 
Q 1341 3275 1631 3429 
Q 1922 3584 2338 3584 
Q 2397 3584 2469 3576 
Q 2541 3569 2628 3553 
L 2631 2963 
z
" transform="scale(0.015625)"/>
       <path id="DejaVuSans-61" d="M 2194 1759 
Q 1497 1759 1228 1600 
Q 959 1441 959 1056 
Q 959 750 1161 570 
Q 1363 391 1709 391 
Q 2188 391 2477 730 
Q 2766 1069 2766 1631 
L 2766 1759 
L 2194 1759 
z
M 3341 1997 
L 3341 0 
L 2766 0 
L 2766 531 
Q 2569 213 2275 61 
Q 1981 -91 1556 -91 
Q 1019 -91 701 211 
Q 384 513 384 1019 
Q 384 1609 779 1909 
Q 1175 2209 1959 2209 
L 2766 2209 
L 2766 2266 
Q 2766 2663 2505 2880 
Q 2244 3097 1772 3097 
Q 1472 3097 1187 3025 
Q 903 2953 641 2809 
L 641 3341 
Q 956 3463 1253 3523 
Q 1550 3584 1831 3584 
Q 2591 3584 2966 3190 
Q 3341 2797 3341 1997 
z
" transform="scale(0.015625)"/>
       <path id="DejaVuSans-74" d="M 1172 4494 
L 1172 3500 
L 2356 3500 
L 2356 3053 
L 1172 3053 
L 1172 1153 
Q 1172 725 1289 603 
Q 1406 481 1766 481 
L 2356 481 
L 2356 0 
L 1766 0 
Q 1100 0 847 248 
Q 594 497 594 1153 
L 594 3053 
L 172 3053 
L 172 3500 
L 594 3500 
L 594 4494 
L 1172 4494 
z
" transform="scale(0.015625)"/>
       <path id="DejaVuSans-69" d="M 603 3500 
L 1178 3500 
L 1178 0 
L 603 0 
L 603 3500 
z
M 603 4863 
L 1178 4863 
L 1178 4134 
L 603 4134 
L 603 4863 
z
" transform="scale(0.015625)"/>
       <path id="DejaVuSans-76" d="M 191 3500 
L 800 3500 
L 1894 563 
L 2988 3500 
L 3597 3500 
L 2284 0 
L 1503 0 
L 191 3500 
z
" transform="scale(0.015625)"/>
       <path id="DejaVuSans-20" transform="scale(0.015625)"/>
       <path id="DejaVuSans-64" d="M 2906 2969 
L 2906 4863 
L 3481 4863 
L 3481 0 
L 2906 0 
L 2906 525 
Q 2725 213 2448 61 
Q 2172 -91 1784 -91 
Q 1150 -91 751 415 
Q 353 922 353 1747 
Q 353 2572 751 3078 
Q 1150 3584 1784 3584 
Q 2172 3584 2448 3432 
Q 2725 3281 2906 2969 
z
M 947 1747 
Q 947 1113 1208 752 
Q 1469 391 1925 391 
Q 2381 391 2643 752 
Q 2906 1113 2906 1747 
Q 2906 2381 2643 2742 
Q 2381 3103 1925 3103 
Q 1469 3103 1208 2742 
Q 947 2381 947 1747 
z
" transform="scale(0.015625)"/>
       <path id="DejaVuSans-4e" d="M 628 4666 
L 1478 4666 
L 3547 763 
L 3547 4666 
L 4159 4666 
L 4159 0 
L 3309 0 
L 1241 3903 
L 1241 0 
L 628 0 
L 628 4666 
z
" transform="scale(0.015625)"/>
       <path id="DejaVuSans-45" d="M 628 4666 
L 3578 4666 
L 3578 4134 
L 1259 4134 
L 1259 2753 
L 3481 2753 
L 3481 2222 
L 1259 2222 
L 1259 531 
L 3634 531 
L 3634 0 
L 628 0 
L 628 4666 
z
" transform="scale(0.015625)"/>
       <path id="DejaVuSans-73" d="M 2834 3397 
L 2834 2853 
Q 2591 2978 2328 3040 
Q 2066 3103 1784 3103 
Q 1356 3103 1142 2972 
Q 928 2841 928 2578 
Q 928 2378 1081 2264 
Q 1234 2150 1697 2047 
L 1894 2003 
Q 2506 1872 2764 1633 
Q 3022 1394 3022 966 
Q 3022 478 2636 193 
Q 2250 -91 1575 -91 
Q 1294 -91 989 -36 
Q 684 19 347 128 
L 347 722 
Q 666 556 975 473 
Q 1284 391 1588 391 
Q 1994 391 2212 530 
Q 2431 669 2431 922 
Q 2431 1156 2273 1281 
Q 2116 1406 1581 1522 
L 1381 1569 
Q 847 1681 609 1914 
Q 372 2147 372 2553 
Q 372 3047 722 3315 
Q 1072 3584 1716 3584 
Q 2034 3584 2315 3537 
Q 2597 3491 2834 3397 
z
" transform="scale(0.015625)"/>
       <path id="DejaVuSans-63" d="M 3122 3366 
L 3122 2828 
Q 2878 2963 2633 3030 
Q 2388 3097 2138 3097 
Q 1578 3097 1268 2742 
Q 959 2388 959 1747 
Q 959 1106 1268 751 
Q 1578 397 2138 397 
Q 2388 397 2633 464 
Q 2878 531 3122 666 
L 3122 134 
Q 2881 22 2623 -34 
Q 2366 -91 2075 -91 
Q 1284 -91 818 406 
Q 353 903 353 1747 
Q 353 2603 823 3093 
Q 1294 3584 2113 3584 
Q 2378 3584 2631 3529 
Q 2884 3475 3122 3366 
z
" transform="scale(0.015625)"/>
       <path id="DejaVuSans-68" d="M 3513 2113 
L 3513 0 
L 2938 0 
L 2938 2094 
Q 2938 2591 2744 2837 
Q 2550 3084 2163 3084 
Q 1697 3084 1428 2787 
Q 1159 2491 1159 1978 
L 1159 0 
L 581 0 
L 581 4863 
L 1159 4863 
L 1159 2956 
Q 1366 3272 1645 3428 
Q 1925 3584 2291 3584 
Q 2894 3584 3203 3211 
Q 3513 2838 3513 2113 
z
" transform="scale(0.015625)"/>
       <path id="DejaVuSans-6d" d="M 3328 2828 
Q 3544 3216 3844 3400 
Q 4144 3584 4550 3584 
Q 5097 3584 5394 3201 
Q 5691 2819 5691 2113 
L 5691 0 
L 5113 0 
L 5113 2094 
Q 5113 2597 4934 2840 
Q 4756 3084 4391 3084 
Q 3944 3084 3684 2787 
Q 3425 2491 3425 1978 
L 3425 0 
L 2847 0 
L 2847 2094 
Q 2847 2600 2669 2842 
Q 2491 3084 2119 3084 
Q 1678 3084 1418 2786 
Q 1159 2488 1159 1978 
L 1159 0 
L 581 0 
L 581 3500 
L 1159 3500 
L 1159 2956 
Q 1356 3278 1631 3431 
Q 1906 3584 2284 3584 
Q 2666 3584 2933 3390 
Q 3200 3197 3328 2828 
z
" transform="scale(0.015625)"/>
      </defs>
      <use xlink:href="#DejaVuSans-72"/>
      <use xlink:href="#DejaVuSans-65" transform="translate(38.863281 0)"/>
      <use xlink:href="#DejaVuSans-6c" transform="translate(100.386719 0)"/>
      <use xlink:href="#DejaVuSans-61" transform="translate(128.169922 0)"/>
      <use xlink:href="#DejaVuSans-74" transform="translate(189.449219 0)"/>
      <use xlink:href="#DejaVuSans-69" transform="translate(228.658203 0)"/>
      <use xlink:href="#DejaVuSans-76" transform="translate(256.441406 0)"/>
      <use xlink:href="#DejaVuSans-65" transform="translate(315.621094 0)"/>
      <use xlink:href="#DejaVuSans-20" transform="translate(377.144531 0)"/>
      <use xlink:href="#DejaVuSans-64" transform="translate(408.931641 0)"/>
      <use xlink:href="#DejaVuSans-4e" transform="translate(472.408203 0)"/>
      <use xlink:href="#DejaVuSans-2f" transform="translate(547.212891 0)"/>
      <use xlink:href="#DejaVuSans-64" transform="translate(580.904297 0)"/>
      <use xlink:href="#DejaVuSans-45" transform="translate(644.380859 0)"/>
      <use xlink:href="#DejaVuSans-20" transform="translate(707.564453 0)"/>
      <use xlink:href="#DejaVuSans-20" transform="translate(739.351562 0)"/>
      <use xlink:href="#DejaVuSans-28" transform="translate(771.138672 0)"/>
      <use xlink:href="#DejaVuSans-73" transform="translate(810.152344 0)"/>
      <use xlink:href="#DejaVuSans-63" transform="translate(862.251953 0)"/>
      <use xlink:href="#DejaVuSans-68" transform="translate(917.232422 0)"/>
      <use xlink:href="#DejaVuSans-65" transform="translate(980.611328 0)"/>
      <use xlink:href="#DejaVuSans-6d" transform="translate(1042.134766 0)"/>
      <use xlink:href="#DejaVuSans-61" transform="translate(1139.546875 0)"/>
      <use xlink:href="#DejaVuSans-74" transform="translate(1200.826172 0)"/>
      <use xlink:href="#DejaVuSans-69" transform="translate(1240.035156 0)"/>
      <use xlink:href="#DejaVuSans-63" transform="translate(1267.818359 0)"/>
      <use xlink:href="#DejaVuSans-29" transform="translate(1322.798828 0)"/>
     </g>
    </g>
   </g>
   <g id="line2d_7">
    <path d="M 38.385714 264.020579 
L 83.611271 263.899428 
L 96.621363 263.648209 
L 104.675229 263.278793 
L 110.250983 262.827088 
L 115.207208 262.200907 
L 118.924377 261.5255 
L 122.022018 260.776457 
L 125.119659 259.805051 
L 127.597772 258.825088 
L 130.075885 257.621012 
L 132.553997 256.143436 
L 134.412582 254.820526 
L 136.271166 253.281538 
L 138.129751 251.49343 
L 139.988336 249.418966 
L 141.84692 247.016519 
L 143.705505 244.240034 
L 145.564089 241.039222 
L 147.422674 237.360113 
L 149.281258 233.146123 
L 151.139843 228.339857 
L 152.998427 222.885912 
L 154.857012 216.735036 
L 156.715596 209.850065 
L 158.574181 202.214134 
L 161.052294 190.895893 
L 163.530406 178.44169 
L 170.964744 139.842937 
L 172.203801 134.642849 
L 173.442857 130.341525 
L 174.681913 127.201626 
L 175.301442 126.15289 
L 175.92097 125.497557 
L 176.540498 125.2692 
L 177.160026 125.49983 
L 177.779554 126.219065 
L 178.399083 127.453197 
L 179.018611 129.22418 
L 179.638139 131.548551 
L 180.257667 134.436314 
L 181.496723 141.902721 
L 182.73578 151.532065 
L 183.974836 163.067503 
L 185.833421 182.951008 
L 189.55059 223.752926 
L 190.789646 235.073122 
L 192.028702 244.397433 
L 193.267759 251.56512 
L 194.506815 256.675187 
L 195.126343 258.547631 
L 195.745872 260.030144 
L 196.3654 261.176898 
L 196.984928 262.042529 
L 197.604456 262.679421 
L 198.223984 263.135581 
L 199.463041 263.667888 
L 200.702097 263.897746 
L 203.18021 264.013067 
L 217.429358 264.0232 
L 781.2 264.0232 
L 781.2 264.0232 
" clip-path="url(#p07c341a4de)" style="fill: none; stroke: #1d3557; stroke-width: 2; stroke-linecap: square"/>
   </g>
   <g id="line2d_8">
    <path d="M 38.385714 125.2692 
L 42.722412 134.201758 
L 47.059109 142.559265 
L 51.395806 150.378741 
L 55.732503 157.694824 
L 60.069201 164.539919 
L 64.405898 170.944348 
L 68.742595 176.93648 
L 73.079292 182.542856 
L 77.41599 187.788312 
L 81.752687 192.69608 
L 86.089384 197.287902 
L 90.426081 201.584116 
L 94.762779 205.603753 
L 99.719004 209.881746 
L 104.675229 213.846466 
L 109.631455 217.520853 
L 114.58768 220.92617 
L 119.543906 224.082118 
L 125.119659 227.357172 
L 130.695413 230.363682 
L 136.271166 233.123666 
L 142.466448 235.92571 
L 148.66173 238.473658 
L 154.857012 240.790551 
L 161.671822 243.097216 
L 168.486632 245.174863 
L 175.92097 247.20685 
L 183.974836 249.161721 
L 192.028702 250.889342 
L 200.702097 252.525946 
L 209.99502 254.053834 
L 219.907471 255.460465 
L 231.058978 256.807133 
L 242.830013 257.999544 
L 255.840105 259.089611 
L 270.089253 260.058514 
L 286.196986 260.926712 
L 304.782831 261.695022 
L 325.846789 262.338009 
L 351.247444 262.881944 
L 382.223853 263.313686 
L 422.493185 263.640717 
L 479.489777 263.863687 
L 575.516645 263.98665 
L 781.2 264.021643 
L 781.2 264.021643 
" clip-path="url(#p07c341a4de)" style="fill: none; stroke-dasharray: 7.4,3.2; stroke-dashoffset: 0; stroke: #2a9d8f; stroke-width: 2"/>
   </g>
   <g id="line2d_9">
    <path d="M 215.754226 279.16 
L 215.754226 26.88 
" clip-path="url(#p07c341a4de)" style="fill: none; stroke: #264653; stroke-opacity: 0.5; stroke-width: 0.8; stroke-linecap: square"/>
   </g>
   <g id="line2d_10">
    <path d="M 223.885477 279.16 
L 223.885477 26.88 
" clip-path="url(#p07c341a4de)" style="fill: none; stroke: #264653; stroke-opacity: 0.5; stroke-width: 0.8; stroke-linecap: square"/>
   </g>
   <g id="line2d_11">
    <path d="M 228.630933 279.16 
L 228.630933 26.88 
" clip-path="url(#p07c341a4de)" style="fill: none; stroke: #264653; stroke-opacity: 0.5; stroke-width: 0.8; stroke-linecap: square"/>
   </g>
   <g id="line2d_12">
    <path d="M 221.850035 279.16 
L 221.850035 26.88 
" clip-path="url(#p07c341a4de)" style="fill: none; stroke: #264653; stroke-opacity: 0.5; stroke-width: 0.8; stroke-linecap: square"/>
   </g>
   <g id="line2d_13">
    <path d="M 224.898184 279.16 
L 224.898184 26.88 
" clip-path="url(#p07c341a4de)" style="fill: none; stroke: #264653; stroke-opacity: 0.5; stroke-width: 0.8; stroke-linecap: square"/>
   </g>
   <g id="line2d_14">
    <path d="M 224.277851 279.16 
L 224.277851 26.88 
" clip-path="url(#p07c341a4de)" style="fill: none; stroke: #264653; stroke-opacity: 0.5; stroke-width: 0.8; stroke-linecap: square"/>
   </g>
   <g id="line2d_15">
    <path d="M 188.786982 279.16 
L 188.786982 26.88 
" clip-path="url(#p07c341a4de)" style="fill: none; stroke: #264653; stroke-opacity: 0.5; stroke-width: 0.8; stroke-linecap: square"/>
   </g>
   <g id="patch_14">
    <path d="M 24.88 279.16 
L 24.88 26.88 
" style="fill: none; stroke: #000000; stroke-width: 0.8; stroke-linejoin: miter; stroke-linecap: square"/>
   </g>
   <g id="patch_15">
    <path d="M 781.2 279.16 
L 781.2 26.88 
" style="fill: none; stroke: #000000; stroke-width: 0.8; stroke-linejoin: miter; stroke-linecap: square"/>
   </g>
   <g id="patch_16">
    <path d="M 24.88 279.16 
L 781.2 279.16 
" style="fill: none; stroke: #000000; stroke-width: 0.8; stroke-linejoin: miter; stroke-linecap: square"/>
   </g>
   <g id="patch_17">
    <path d="M 24.88 26.88 
L 781.2 26.88 
" style="fill: none; stroke: #000000; stroke-width: 0.8; stroke-linejoin: miter; stroke-linecap: square"/>
   </g>
   <g id="text_9">
    <!-- radio -->
    <g transform="translate(67.434888 43.809794) scale(0.09 -0.09)">
     <use xlink:href="#DejaVuSans-72"/>
     <use xlink:href="#DejaVuSans-61" transform="translate(41.113281 0)"/>
     <use xlink:href="#DejaVuSans-64" transform="translate(102.392578 0)"/>
     <use xlink:href="#DejaVuSans-69" transform="translate(165.869141 0)"/>
     <use xlink:href="#DejaVuSans-6f" transform="translate(193.652344 0)"/>
    </g>
   </g>
   <g id="text_10">
    <!-- μwave -->
    <g transform="translate(131.698147 43.809794) scale(0.09 -0.09)">
     <defs>
      <path id="DejaVuSans-3bc" d="M 544 -1331 
L 544 3500 
L 1119 3500 
L 1119 1325 
Q 1119 872 1334 640 
Q 1550 409 1972 409 
Q 2434 409 2667 671 
Q 2900 934 2900 1459 
L 2900 3500 
L 3475 3500 
L 3475 806 
Q 3475 619 3529 530 
Q 3584 441 3700 441 
Q 3728 441 3778 458 
Q 3828 475 3916 513 
L 3916 50 
Q 3788 -22 3673 -56 
Q 3559 -91 3450 -91 
Q 3234 -91 3106 31 
Q 2978 153 2931 403 
Q 2775 156 2548 32 
Q 2322 -91 2016 -91 
Q 1697 -91 1473 31 
Q 1250 153 1119 397 
L 1119 -1331 
L 544 -1331 
z
" transform="scale(0.015625)"/>
      <path id="DejaVuSans-77" d="M 269 3500 
L 844 3500 
L 1563 769 
L 2278 3500 
L 2956 3500 
L 3675 769 
L 4391 3500 
L 4966 3500 
L 4050 0 
L 3372 0 
L 2619 2869 
L 1863 0 
L 1184 0 
L 269 3500 
z
" transform="scale(0.015625)"/>
     </defs>
     <use xlink:href="#DejaVuSans-3bc"/>
     <use xlink:href="#DejaVuSans-77" transform="translate(63.623047 0)"/>
     <use xlink:href="#DejaVuSans-61" transform="translate(145.410156 0)"/>
     <use xlink:href="#DejaVuSans-76" transform="translate(206.689453 0)"/>
     <use xlink:href="#DejaVuSans-65" transform="translate(265.869141 0)"/>
    </g>
   </g>
   <g id="text_11">
    <!-- IR -->
    <g transform="translate(186.545989 43.809794) scale(0.09 -0.09)">
     <defs>
      <path id="DejaVuSans-49" d="M 628 4666 
L 1259 4666 
L 1259 0 
L 628 0 
L 628 4666 
z
" transform="scale(0.015625)"/>
      <path id="DejaVuSans-52" d="M 2841 2188 
Q 3044 2119 3236 1894 
Q 3428 1669 3622 1275 
L 4263 0 
L 3584 0 
L 2988 1197 
Q 2756 1666 2539 1819 
Q 2322 1972 1947 1972 
L 1259 1972 
L 1259 0 
L 628 0 
L 628 4666 
L 2053 4666 
Q 2853 4666 3247 4331 
Q 3641 3997 3641 3322 
Q 3641 2881 3436 2590 
Q 3231 2300 2841 2188 
z
M 1259 4147 
L 1259 2491 
L 2053 2491 
Q 2509 2491 2742 2702 
Q 2975 2913 2975 3322 
Q 2975 3731 2742 3939 
Q 2509 4147 2053 4147 
L 1259 4147 
z
" transform="scale(0.015625)"/>
     </defs>
     <use xlink:href="#DejaVuSans-49"/>
     <use xlink:href="#DejaVuSans-52" transform="translate(29.492188 0)"/>
    </g>
   </g>
   <g id="text_12">
    <!-- vis -->
    <g transform="translate(219.85733 43.809794) scale(0.09 -0.09)">
     <use xlink:href="#DejaVuSans-76"/>
     <use xlink:href="#DejaVuSans-69" transform="translate(59.179688 0)"/>
     <use xlink:href="#DejaVuSans-73" transform="translate(86.962891 0)"/>
    </g>
   </g>
   <g id="text_13">
    <!-- UV -->
    <g transform="translate(242.703138 43.809794) scale(0.09 -0.09)">
     <defs>
      <path id="DejaVuSans-55" d="M 556 4666 
L 1191 4666 
L 1191 1831 
Q 1191 1081 1462 751 
Q 1734 422 2344 422 
Q 2950 422 3222 751 
Q 3494 1081 3494 1831 
L 3494 4666 
L 4128 4666 
L 4128 1753 
Q 4128 841 3676 375 
Q 3225 -91 2344 -91 
Q 1459 -91 1007 375 
Q 556 841 556 1753 
L 556 4666 
z
" transform="scale(0.015625)"/>
     </defs>
     <use xlink:href="#DejaVuSans-55"/>
     <use xlink:href="#DejaVuSans-56" transform="translate(73.193359 0)"/>
    </g>
   </g>
   <g id="text_14">
    <!-- X-ray -->
    <g transform="translate(296.747969 43.809794) scale(0.09 -0.09)">
     <defs>
      <path id="DejaVuSans-58" d="M 403 4666 
L 1081 4666 
L 2241 2931 
L 3406 4666 
L 4084 4666 
L 2584 2425 
L 4184 0 
L 3506 0 
L 2194 1984 
L 872 0 
L 191 0 
L 1856 2491 
L 403 4666 
z
" transform="scale(0.015625)"/>
      <path id="DejaVuSans-2d" d="M 313 2009 
L 1997 2009 
L 1997 1497 
L 313 1497 
L 313 2009 
z
" transform="scale(0.015625)"/>
      <path id="DejaVuSans-79" d="M 2059 -325 
Q 1816 -950 1584 -1140 
Q 1353 -1331 966 -1331 
L 506 -1331 
L 506 -850 
L 844 -850 
Q 1081 -850 1212 -737 
Q 1344 -625 1503 -206 
L 1606 56 
L 191 3500 
L 800 3500 
L 1894 763 
L 2988 3500 
L 3597 3500 
L 2059 -325 
z
" transform="scale(0.015625)"/>
     </defs>
     <use xlink:href="#DejaVuSans-58"/>
     <use xlink:href="#DejaVuSans-2d" transform="translate(63.505859 0)"/>
     <use xlink:href="#DejaVuSans-72" transform="translate(99.589844 0)"/>
     <use xlink:href="#DejaVuSans-61" transform="translate(140.703125 0)"/>
     <use xlink:href="#DejaVuSans-79" transform="translate(201.982422 0)"/>
    </g>
   </g>
   <g id="text_15">
    <!-- γ -->
    <g transform="translate(427.387991 43.809794) scale(0.09 -0.09)">
     <defs>
      <path id="DejaVuSans-3b3" d="M 1128 2950 
L 1894 788 
L 2988 3500 
L 3597 3500 
L 2181 0 
L 2181 -1331 
L 1606 -1331 
L 1606 0 
L 688 2613 
Q 550 3006 253 3006 
L 100 3006 
L 100 3500 
L 319 3500 
Q 934 3500 1128 2950 
z
" transform="scale(0.015625)"/>
     </defs>
     <use xlink:href="#DejaVuSans-3b3"/>
    </g>
   </g>
   <g id="text_16">
    <!-- TeV -->
    <g transform="translate(543.772154 43.809794) scale(0.09 -0.09)">
     <defs>
      <path id="DejaVuSans-54" d="M -19 4666 
L 3928 4666 
L 3928 4134 
L 2272 4134 
L 2272 0 
L 1638 0 
L 1638 4134 
L -19 4134 
L -19 4666 
z
" transform="scale(0.015625)"/>
     </defs>
     <use xlink:href="#DejaVuSans-54"/>
     <use xlink:href="#DejaVuSans-65" transform="translate(44.083984 0)"/>
     <use xlink:href="#DejaVuSans-56" transform="translate(105.607422 0)"/>
    </g>
   </g>
   <g id="text_17">
    <!-- PeV -->
    <g transform="translate(624.239721 43.809794) scale(0.09 -0.09)">
     <defs>
      <path id="DejaVuSans-50" d="M 1259 4147 
L 1259 2394 
L 2053 2394 
Q 2494 2394 2734 2622 
Q 2975 2850 2975 3272 
Q 2975 3691 2734 3919 
Q 2494 4147 2053 4147 
L 1259 4147 
z
M 628 4666 
L 2053 4666 
Q 2838 4666 3239 4311 
Q 3641 3956 3641 3272 
Q 3641 2581 3239 2228 
Q 2838 1875 2053 1875 
L 1259 1875 
L 1259 0 
L 628 0 
L 628 4666 
z
" transform="scale(0.015625)"/>
     </defs>
     <use xlink:href="#DejaVuSans-50"/>
     <use xlink:href="#DejaVuSans-65" transform="translate(56.677734 0)"/>
     <use xlink:href="#DejaVuSans-56" transform="translate(118.201172 0)"/>
    </g>
   </g>
   <g id="text_18">
    <!-- EeV -->
    <g transform="translate(691.475089 43.809794) scale(0.09 -0.09)">
     <use xlink:href="#DejaVuSans-45"/>
     <use xlink:href="#DejaVuSans-65" transform="translate(63.183594 0)"/>
     <use xlink:href="#DejaVuSans-56" transform="translate(124.707031 0)"/>
    </g>
   </g>
   <g id="text_19">
    <!-- ZeV -->
    <g transform="translate(745.258884 43.809794) scale(0.09 -0.09)">
     <defs>
      <path id="DejaVuSans-5a" d="M 359 4666 
L 4025 4666 
L 4025 4184 
L 1075 531 
L 4097 531 
L 4097 0 
L 288 0 
L 288 481 
L 3238 4134 
L 359 4134 
L 359 4666 
z
" transform="scale(0.015625)"/>
     </defs>
     <use xlink:href="#DejaVuSans-5a"/>
     <use xlink:href="#DejaVuSans-65" transform="translate(68.505859 0)"/>
     <use xlink:href="#DejaVuSans-56" transform="translate(130.029297 0)"/>
    </g>
   </g>
   <g id="text_20">
    <!-- laser -->
    <g transform="translate(214.298445 274.1144) rotate(-90) scale(0.07 -0.07)">
     <use xlink:href="#DejaVuSans-6c"/>
     <use xlink:href="#DejaVuSans-61" transform="translate(27.783203 0)"/>
     <use xlink:href="#DejaVuSans-73" transform="translate(89.0625 0)"/>
     <use xlink:href="#DejaVuSans-65" transform="translate(141.162109 0)"/>
     <use xlink:href="#DejaVuSans-72" transform="translate(202.685547 0)"/>
    </g>
   </g>
   <g id="text_21">
    <!-- laser -->
    <g transform="translate(222.429695 274.1144) rotate(-90) scale(0.07 -0.07)">
     <use xlink:href="#DejaVuSans-6c"/>
     <use xlink:href="#DejaVuSans-61" transform="translate(27.783203 0)"/>
     <use xlink:href="#DejaVuSans-73" transform="translate(89.0625 0)"/>
     <use xlink:href="#DejaVuSans-65" transform="translate(141.162109 0)"/>
     <use xlink:href="#DejaVuSans-72" transform="translate(202.685547 0)"/>
    </g>
   </g>
   <g id="text_22">
    <!-- laser -->
    <g transform="translate(227.175152 274.1144) rotate(-90) scale(0.07 -0.07)">
     <use xlink:href="#DejaVuSans-6c"/>
     <use xlink:href="#DejaVuSans-61" transform="translate(27.783203 0)"/>
     <use xlink:href="#DejaVuSans-73" transform="translate(89.0625 0)"/>
     <use xlink:href="#DejaVuSans-65" transform="translate(141.162109 0)"/>
     <use xlink:href="#DejaVuSans-72" transform="translate(202.685547 0)"/>
    </g>
   </g>
   <g id="text_23">
    <!-- laser -->
    <g transform="translate(220.394253 274.1144) rotate(-90) scale(0.07 -0.07)">
     <use xlink:href="#DejaVuSans-6c"/>
     <use xlink:href="#DejaVuSans-61" transform="translate(27.783203 0)"/>
     <use xlink:href="#DejaVuSans-73" transform="translate(89.0625 0)"/>
     <use xlink:href="#DejaVuSans-65" transform="translate(141.162109 0)"/>
     <use xlink:href="#DejaVuSans-72" transform="translate(202.685547 0)"/>
    </g>
   </g>
   <g id="text_24">
    <!-- laser -->
    <g transform="translate(223.442403 274.1144) rotate(-90) scale(0.07 -0.07)">
     <use xlink:href="#DejaVuSans-6c"/>
     <use xlink:href="#DejaVuSans-61" transform="translate(27.783203 0)"/>
     <use xlink:href="#DejaVuSans-73" transform="translate(89.0625 0)"/>
     <use xlink:href="#DejaVuSans-65" transform="translate(141.162109 0)"/>
     <use xlink:href="#DejaVuSans-72" transform="translate(202.685547 0)"/>
    </g>
   </g>
   <g id="text_25">
    <!-- laser -->
    <g transform="translate(222.82207 274.1144) rotate(-90) scale(0.07 -0.07)">
     <use xlink:href="#DejaVuSans-6c"/>
     <use xlink:href="#DejaVuSans-61" transform="translate(27.783203 0)"/>
     <use xlink:href="#DejaVuSans-73" transform="translate(89.0625 0)"/>
     <use xlink:href="#DejaVuSans-65" transform="translate(141.162109 0)"/>
     <use xlink:href="#DejaVuSans-72" transform="translate(202.685547 0)"/>
    </g>
   </g>
   <g id="text_26">
    <!-- laser -->
    <g transform="translate(187.331201 274.1144) rotate(-90) scale(0.07 -0.07)">
     <use xlink:href="#DejaVuSans-6c"/>
     <use xlink:href="#DejaVuSans-61" transform="translate(27.783203 0)"/>
     <use xlink:href="#DejaVuSans-73" transform="translate(89.0625 0)"/>
     <use xlink:href="#DejaVuSans-65" transform="translate(141.162109 0)"/>
     <use xlink:href="#DejaVuSans-72" transform="translate(202.685547 0)"/>
    </g>
   </g>
   <g id="text_27">
    <!-- cutoff -->
    <g transform="translate(338.896674 103.631019) scale(0.07 -0.07)">
     <defs>
      <path id="DejaVuSans-75" d="M 544 1381 
L 544 3500 
L 1119 3500 
L 1119 1403 
Q 1119 906 1312 657 
Q 1506 409 1894 409 
Q 2359 409 2629 706 
Q 2900 1003 2900 1516 
L 2900 3500 
L 3475 3500 
L 3475 0 
L 2900 0 
L 2900 538 
Q 2691 219 2414 64 
Q 2138 -91 1772 -91 
Q 1169 -91 856 284 
Q 544 659 544 1381 
z
M 1991 3584 
L 1991 3584 
z
" transform="scale(0.015625)"/>
      <path id="DejaVuSans-66" d="M 2375 4863 
L 2375 4384 
L 1825 4384 
Q 1516 4384 1395 4259 
Q 1275 4134 1275 3809 
L 1275 3500 
L 2222 3500 
L 2222 3053 
L 1275 3053 
L 1275 0 
L 697 0 
L 697 3053 
L 147 3053 
L 147 3500 
L 697 3500 
L 697 3744 
Q 697 4328 969 4595 
Q 1241 4863 1831 4863 
L 2375 4863 
z
" transform="scale(0.015625)"/>
     </defs>
     <use xlink:href="#DejaVuSans-63"/>
     <use xlink:href="#DejaVuSans-75" transform="translate(54.980469 0)"/>
     <use xlink:href="#DejaVuSans-74" transform="translate(118.359375 0)"/>
     <use xlink:href="#DejaVuSans-6f" transform="translate(157.568359 0)"/>
     <use xlink:href="#DejaVuSans-66" transform="translate(218.75 0)"/>
     <use xlink:href="#DejaVuSans-66" transform="translate(253.955078 0)"/>
    </g>
   </g>
   <g id="text_28">
    <!-- cutoff -->
    <g transform="translate(527.976674 103.631019) scale(0.07 -0.07)">
     <use xlink:href="#DejaVuSans-63"/>
     <use xlink:href="#DejaVuSans-75" transform="translate(54.980469 0)"/>
     <use xlink:href="#DejaVuSans-74" transform="translate(118.359375 0)"/>
     <use xlink:href="#DejaVuSans-6f" transform="translate(157.568359 0)"/>
     <use xlink:href="#DejaVuSans-66" transform="translate(218.75 0)"/>
     <use xlink:href="#DejaVuSans-66" transform="translate(253.955078 0)"/>
    </g>
   </g>
   <g id="text_29">
    <!-- cutoff -->
    <g transform="translate(609.01096 103.631019) scale(0.07 -0.07)">
     <use xlink:href="#DejaVuSans-63"/>
     <use xlink:href="#DejaVuSans-75" transform="translate(54.980469 0)"/>
     <use xlink:href="#DejaVuSans-74" transform="translate(118.359375 0)"/>
     <use xlink:href="#DejaVuSans-6f" transform="translate(157.568359 0)"/>
     <use xlink:href="#DejaVuSans-66" transform="translate(218.75 0)"/>
     <use xlink:href="#DejaVuSans-66" transform="translate(253.955078 0)"/>
    </g>
   </g>
   <g id="text_30">
    <!-- GZK tail -->
    <g transform="translate(732.078649 103.631019) scale(0.07 -0.07)">
     <defs>
      <path id="DejaVuSans-47" d="M 3809 666 
L 3809 1919 
L 2778 1919 
L 2778 2438 
L 4434 2438 
L 4434 434 
Q 4069 175 3628 42 
Q 3188 -91 2688 -91 
Q 1594 -91 976 548 
Q 359 1188 359 2328 
Q 359 3472 976 4111 
Q 1594 4750 2688 4750 
Q 3144 4750 3555 4637 
Q 3966 4525 4313 4306 
L 4313 3634 
Q 3963 3931 3569 4081 
Q 3175 4231 2741 4231 
Q 1884 4231 1454 3753 
Q 1025 3275 1025 2328 
Q 1025 1384 1454 906 
Q 1884 428 2741 428 
Q 3075 428 3337 486 
Q 3600 544 3809 666 
z
" transform="scale(0.015625)"/>
      <path id="DejaVuSans-4b" d="M 628 4666 
L 1259 4666 
L 1259 2694 
L 3353 4666 
L 4166 4666 
L 1850 2491 
L 4331 0 
L 3500 0 
L 1259 2247 
L 1259 0 
L 628 0 
L 628 4666 
z
" transform="scale(0.015625)"/>
     </defs>
     <use xlink:href="#DejaVuSans-47"/>
     <use xlink:href="#DejaVuSans-5a" transform="translate(77.490234 0)"/>
     <use xlink:href="#DejaVuSans-4b" transform="translate(145.996094 0)"/>
     <use xlink:href="#DejaVuSans-20" transform="translate(211.572266 0)"/>
     <use xlink:href="#DejaVuSans-74" transform="translate(243.359375 0)"/>
     <use xlink:href="#DejaVuSans-61" transform="translate(282.568359 0)"/>
     <use xlink:href="#DejaVuSans-69" transform="translate(343.847656 0)"/>
     <use xlink:href="#DejaVuSans-6c" transform="translate(371.630859 0)"/>
    </g>
   </g>
   <g id="text_31">
    <!-- anomalymetric — energy coverage -->
    <g transform="translate(297.3425 20.88) scale(0.12 -0.12)">
     <defs>
      <path id="DejaVuSans-6e" d="M 3513 2113 
L 3513 0 
L 2938 0 
L 2938 2094 
Q 2938 2591 2744 2837 
Q 2550 3084 2163 3084 
Q 1697 3084 1428 2787 
Q 1159 2491 1159 1978 
L 1159 0 
L 581 0 
L 581 3500 
L 1159 3500 
L 1159 2956 
Q 1366 3272 1645 3428 
Q 1925 3584 2291 3584 
Q 2894 3584 3203 3211 
Q 3513 2838 3513 2113 
z
" transform="scale(0.015625)"/>
      <path id="DejaVuSans-2014" d="M 313 1978 
L 6088 1978 
L 6088 1528 
L 313 1528 
L 313 1978 
z
" transform="scale(0.015625)"/>
     </defs>
     <use xlink:href="#DejaVuSans-61"/>
     <use xlink:href="#DejaVuSans-6e" transform="translate(61.279297 0)"/>
     <use xlink:href="#DejaVuSans-6f" transform="translate(124.658203 0)"/>
     <use xlink:href="#DejaVuSans-6d" transform="translate(185.839844 0)"/>
     <use xlink:href="#DejaVuSans-61" transform="translate(283.251953 0)"/>
     <use xlink:href="#DejaVuSans-6c" transform="translate(344.53125 0)"/>
     <use xlink:href="#DejaVuSans-79" transform="translate(372.314453 0)"/>
     <use xlink:href="#DejaVuSans-6d" transform="translate(431.494141 0)"/>
     <use xlink:href="#DejaVuSans-65" transform="translate(528.90625 0)"/>
     <use xlink:href="#DejaVuSans-74" transform="translate(590.429688 0)"/>
     <use xlink:href="#DejaVuSans-72" transform="translate(629.638672 0)"/>
     <use xlink:href="#DejaVuSans-69" transform="translate(670.751953 0)"/>
     <use xlink:href="#DejaVuSans-63" transform="translate(698.535156 0)"/>
     <use xlink:href="#DejaVuSans-20" transform="translate(753.515625 0)"/>
     <use xlink:href="#DejaVuSans-2014" transform="translate(785.302734 0)"/>
     <use xlink:href="#DejaVuSans-20" transform="translate(885.302734 0)"/>
     <use xlink:href="#DejaVuSans-65" transform="translate(917.089844 0)"/>
     <use xlink:href="#DejaVuSans-6e" transform="translate(978.613281 0)"/>
     <use xlink:href="#DejaVuSans-65" transform="translate(1041.992188 0)"/>
     <use xlink:href="#DejaVuSans-72" transform="translate(1103.515625 0)"/>
     <use xlink:href="#DejaVuSans-67" transform="translate(1142.878906 0)"/>
     <use xlink:href="#DejaVuSans-79" transform="translate(1206.355469 0)"/>
     <use xlink:href="#DejaVuSans-20" transform="translate(1265.535156 0)"/>
     <use xlink:href="#DejaVuSans-63" transform="translate(1297.322266 0)"/>
     <use xlink:href="#DejaVuSans-6f" transform="translate(1352.302734 0)"/>
     <use xlink:href="#DejaVuSans-76" transform="translate(1413.484375 0)"/>
     <use xlink:href="#DejaVuSans-65" transform="translate(1472.664062 0)"/>
     <use xlink:href="#DejaVuSans-72" transform="translate(1534.1875 0)"/>
     <use xlink:href="#DejaVuSans-61" transform="translate(1575.300781 0)"/>
     <use xlink:href="#DejaVuSans-67" transform="translate(1636.580078 0)"/>
     <use xlink:href="#DejaVuSans-65" transform="translate(1700.056641 0)"/>
    </g>
   </g>
   <g id="PathCollection_1">
    <defs>
     <path id="ma0542229d1" d="M -0 3.872983 
L 3.872983 -3.872983 
L -3.872983 -3.872983 
z
" style="stroke: #bc4749"/>
    </defs>
    <g clip-path="url(#p07c341a4de)">
     <use xlink:href="#ma0542229d1" x="349.017143" y="112.6552" style="fill: #bc4749; stroke: #bc4749"/>
    </g>
   </g>
   <g id="PathCollection_2">
    <g clip-path="url(#p07c341a4de)">
     <use xlink:href="#ma0542229d1" x="538.097143" y="112.6552" style="fill: #bc4749; stroke: #bc4749"/>
    </g>
   </g>
   <g id="PathCollection_3">
    <g clip-path="url(#p07c341a4de)">
     <use xlink:href="#ma0542229d1" x="619.131429" y="112.6552" style="fill: #bc4749; stroke: #bc4749"/>
    </g>
   </g>
   <g id="PathCollection_4">
    <defs>
     <path id="m96da278fb3" d="M -2.371708 4.743416 
L 0 2.371708 
L 2.371708 4.743416 
L 4.743416 2.371708 
L 2.371708 0 
L 4.743416 -2.371708 
L 2.371708 -4.743416 
L 0 -2.371708 
L -2.371708 -4.743416 
L -4.743416 -2.371708 
L -2.371708 0 
L -4.743416 2.371708 
z
" style="stroke: #9d0208"/>
    </defs>
    <g clip-path="url(#p07c341a4de)">
     <use xlink:href="#m96da278fb3" x="746.057321" y="112.6552" style="fill: #9d0208; stroke: #9d0208"/>
    </g>
   </g>
   <g id="legend_1">
    <g id="patch_18">
     <path d="M 658.407812 64.23625 
L 774.2 64.23625 
Q 776.2 64.23625 776.2 62.23625 
L 776.2 33.88 
Q 776.2 31.88 774.2 31.88 
L 658.407812 31.88 
Q 656.407812 31.88 656.407812 33.88 
L 656.407812 62.23625 
Q 656.407812 64.23625 658.407812 64.23625 
z
" style="fill: #ffffff; opacity: 0.92; stroke: #cccccc; stroke-linejoin: miter"/>
    </g>
    <g id="line2d_16">
     <path d="M 660.407812 39.978437 
L 670.407812 39.978437 
L 680.407812 39.978437 
" style="fill: none; stroke: #1d3557; stroke-width: 2; stroke-linecap: square"/>
    </g>
    <g id="text_32">
     <!-- Blackbody 300 K -->
     <g transform="translate(688.407812 43.478437) scale(0.1 -0.1)">
      <defs>
       <path id="DejaVuSans-42" d="M 1259 2228 
L 1259 519 
L 2272 519 
Q 2781 519 3026 730 
Q 3272 941 3272 1375 
Q 3272 1813 3026 2020 
Q 2781 2228 2272 2228 
L 1259 2228 
z
M 1259 4147 
L 1259 2741 
L 2194 2741 
Q 2656 2741 2882 2914 
Q 3109 3088 3109 3444 
Q 3109 3797 2882 3972 
Q 2656 4147 2194 4147 
L 1259 4147 
z
M 628 4666 
L 2241 4666 
Q 2963 4666 3353 4366 
Q 3744 4066 3744 3513 
Q 3744 3084 3544 2831 
Q 3344 2578 2956 2516 
Q 3422 2416 3680 2098 
Q 3938 1781 3938 1306 
Q 3938 681 3513 340 
Q 3088 0 2303 0 
L 628 0 
L 628 4666 
z
" transform="scale(0.015625)"/>
       <path id="DejaVuSans-6b" d="M 581 4863 
L 1159 4863 
L 1159 1991 
L 2875 3500 
L 3609 3500 
L 1753 1863 
L 3688 0 
L 2938 0 
L 1159 1709 
L 1159 0 
L 581 0 
L 581 4863 
z
" transform="scale(0.015625)"/>
       <path id="DejaVuSans-62" d="M 3116 1747 
Q 3116 2381 2855 2742 
Q 2594 3103 2138 3103 
Q 1681 3103 1420 2742 
Q 1159 2381 1159 1747 
Q 1159 1113 1420 752 
Q 1681 391 2138 391 
Q 2594 391 2855 752 
Q 3116 1113 3116 1747 
z
M 1159 2969 
Q 1341 3281 1617 3432 
Q 1894 3584 2278 3584 
Q 2916 3584 3314 3078 
Q 3713 2572 3713 1747 
Q 3713 922 3314 415 
Q 2916 -91 2278 -91 
Q 1894 -91 1617 61 
Q 1341 213 1159 525 
L 1159 0 
L 581 0 
L 581 4863 
L 1159 4863 
L 1159 2969 
z
" transform="scale(0.015625)"/>
       <path id="DejaVuSans-33" d="M 2597 2516 
Q 3050 2419 3304 2112 
Q 3559 1806 3559 1356 
Q 3559 666 3084 287 
Q 2609 -91 1734 -91 
Q 1441 -91 1130 -33 
Q 819 25 488 141 
L 488 750 
Q 750 597 1062 519 
Q 1375 441 1716 441 
Q 2309 441 2620 675 
Q 2931 909 2931 1356 
Q 2931 1769 2642 2001 
Q 2353 2234 1838 2234 
L 1294 2234 
L 1294 2753 
L 1863 2753 
Q 2328 2753 2575 2939 
Q 2822 3125 2822 3475 
Q 2822 3834 2567 4026 
Q 2313 4219 1838 4219 
Q 1578 4219 1281 4162 
Q 984 4106 628 3988 
L 628 4550 
Q 988 4650 1302 4700 
Q 1616 4750 1894 4750 
Q 2613 4750 3031 4423 
Q 3450 4097 3450 3541 
Q 3450 3153 3228 2886 
Q 3006 2619 2597 2516 
z
" transform="scale(0.015625)"/>
      </defs>
      <use xlink:href="#DejaVuSans-42"/>
      <use xlink:href="#DejaVuSans-6c" transform="translate(68.603516 0)"/>
      <use xlink:href="#DejaVuSans-61" transform="translate(96.386719 0)"/>
      <use xlink:href="#DejaVuSans-63" transform="translate(157.666016 0)"/>
      <use xlink:href="#DejaVuSans-6b" transform="translate(212.646484 0)"/>
      <use xlink:href="#DejaVuSans-62" transform="translate(270.556641 0)"/>
      <use xlink:href="#DejaVuSans-6f" transform="translate(334.033203 0)"/>
      <use xlink:href="#DejaVuSans-64" transform="translate(395.214844 0)"/>
      <use xlink:href="#DejaVuSans-79" transform="translate(458.691406 0)"/>
      <use xlink:href="#DejaVuSans-20" transform="translate(517.871094 0)"/>
      <use xlink:href="#DejaVuSans-33" transform="translate(549.658203 0)"/>
      <use xlink:href="#DejaVuSans-30" transform="translate(613.28125 0)"/>
      <use xlink:href="#DejaVuSans-30" transform="translate(676.904297 0)"/>
      <use xlink:href="#DejaVuSans-20" transform="translate(740.527344 0)"/>
      <use xlink:href="#DejaVuSans-4b" transform="translate(772.314453 0)"/>
     </g>
    </g>
    <g id="line2d_17">
     <path d="M 660.407812 54.656563 
L 670.407812 54.656563 
L 680.407812 54.656563 
" style="fill: none; stroke-dasharray: 7.4,3.2; stroke-dashoffset: 0; stroke: #2a9d8f; stroke-width: 2"/>
    </g>
    <g id="text_33">
     <!-- Astro power-law -->
     <g transform="translate(688.407812 58.156563) scale(0.1 -0.1)">
      <defs>
       <path id="DejaVuSans-41" d="M 2188 4044 
L 1331 1722 
L 3047 1722 
L 2188 4044 
z
M 1831 4666 
L 2547 4666 
L 4325 0 
L 3669 0 
L 3244 1197 
L 1141 1197 
L 716 0 
L 50 0 
L 1831 4666 
z
" transform="scale(0.015625)"/>
       <path id="DejaVuSans-70" d="M 1159 525 
L 1159 -1331 
L 581 -1331 
L 581 3500 
L 1159 3500 
L 1159 2969 
Q 1341 3281 1617 3432 
Q 1894 3584 2278 3584 
Q 2916 3584 3314 3078 
Q 3713 2572 3713 1747 
Q 3713 922 3314 415 
Q 2916 -91 2278 -91 
Q 1894 -91 1617 61 
Q 1341 213 1159 525 
z
M 3116 1747 
Q 3116 2381 2855 2742 
Q 2594 3103 2138 3103 
Q 1681 3103 1420 2742 
Q 1159 2381 1159 1747 
Q 1159 1113 1420 752 
Q 1681 391 2138 391 
Q 2594 391 2855 752 
Q 3116 1113 3116 1747 
z
" transform="scale(0.015625)"/>
      </defs>
      <use xlink:href="#DejaVuSans-41"/>
      <use xlink:href="#DejaVuSans-73" transform="translate(68.408203 0)"/>
      <use xlink:href="#DejaVuSans-74" transform="translate(120.507812 0)"/>
      <use xlink:href="#DejaVuSans-72" transform="translate(159.716797 0)"/>
      <use xlink:href="#DejaVuSans-6f" transform="translate(198.580078 0)"/>
      <use xlink:href="#DejaVuSans-20" transform="translate(259.761719 0)"/>
      <use xlink:href="#DejaVuSans-70" transform="translate(291.548828 0)"/>
      <use xlink:href="#DejaVuSans-6f" transform="translate(355.025391 0)"/>
      <use xlink:href="#DejaVuSans-77" transform="translate(416.207031 0)"/>
      <use xlink:href="#DejaVuSans-65" transform="translate(497.994141 0)"/>
      <use xlink:href="#DejaVuSans-72" transform="translate(559.517578 0)"/>
      <use xlink:href="#DejaVuSans-2d" transform="translate(594.255859 0)"/>
      <use xlink:href="#DejaVuSans-6c" transform="translate(630.339844 0)"/>
      <use xlink:href="#DejaVuSans-61" transform="translate(658.123047 0)"/>
      <use xlink:href="#DejaVuSans-77" transform="translate(719.402344 0)"/>
     </g>
    </g>
   </g>
  </g>
 </g>
 <defs>
  <clipPath id="p07c341a4de">
   <rect x="24.88" y="26.88" width="756.32" height="252.28"/>
  </clipPath>
 </defs>
</svg>
