<?xml version="1.0" encoding="utf-8" standalone="no"?>
<!DOCTYPE svg PUBLIC "-//W3C//DTD SVG 1.1//EN"
  "http://www.w3.org/Graphics/SVG/1.1/DTD/svg11.dtd">
<svg xmlns:xlink="http://www.w3.org/1999/xlink" width="792pt" height="259.2pt" viewBox="0 0 792 259.2" xmlns="http://www.w3.org/2000/svg" version="1.1">
 <metadata>
  <rdf:RDF xmlns:dc="http://purl.org/dc/elements/1.1/" xmlns:cc="http://creativecommons.org/ns#" xmlns:rdf="http://www.w3.org/1999/02/22-rdf-syntax-ns#">
   <cc:Work>
    <dc:type rdf:resource="http://purl.org/dc/dcmitype/StillImage"/>
    <dc:date>2026-05-25T12:11:46.779822</dc:date>
    <dc:format>image/svg+xml</dc:format>
    <dc:creator>
     <cc:Agent>
      <dc:title>Matplotlib v3.10.9, https://matplotlib.org/</dc:title>
     </cc:Agent>
    </dc:creator>
   </cc:Work>
  </rdf:RDF>
 </metadata>
 <defs>
  <style type="text/css">*{stroke-linejoin: round; stroke-linecap: butt}</style>
 </defs>
 <g id="figure_1">
  <g id="patch_1">
   <path d="M 0 259.2 
L 792 259.2 
L 792 0 
L 0 0 
z
" style="fill: #ffffff"/>
  </g>
  <g id="axes_1">
   <g id="patch_2">
    <path d="M 21.285 214.36 
L 773.865 214.36 
L 773.865 26.88 
L 21.285 26.88 
z
" style="fill: #ffffff"/>
   </g>
   <g id="patch_3">
    <path d="M 3.248745 133.7436 
L 426.574995 133.7436 
L 426.574995 88.7484 
L 3.248745 88.7484 
z
" clip-path="url(#p0c6fa80c08)" style="fill: #a8dadc; opacity: 0.5; stroke: #a8dadc; stroke-linejoin: miter"/>
   </g>
   <g id="patch_4">
    <path d="M 238.429995 193.7372 
L 708.792495 193.7372 
L 708.792495 148.742 
L 238.429995 148.742 
z
" clip-path="url(#p0c6fa80c08)" style="fill: #ffd166; opacity: 0.5; stroke: #ffd166; stroke-linejoin: miter"/>
   </g>
   <g id="matplotlib.axis_1">
    <g id="xtick_1">
     <g id="line2d_1">
      <defs>
       <path id="m1ee7b080da" d="M 0 0 
L 0 3.5 
" style="stroke: #000000; stroke-width: 0.8"/>
      </defs>
      <g>
       <use xlink:href="#m1ee7b080da" x="21.285" y="214.36" style="stroke: #000000; stroke-width: 0.8"/>
      </g>
     </g>
     <g id="text_1">
      <!-- −20 -->
      <g transform="translate(10.732656 228.958438) scale(0.1 -0.1)">
       <defs>
        <path id="DejaVuSans-2212" d="M 678 2272 
L 4684 2272 
L 4684 1741 
L 678 1741 
L 678 2272 
z
" transform="scale(0.015625)"/>
        <path id="DejaVuSans-32" d="M 1228 531 
L 3431 531 
L 3431 0 
L 469 0 
L 469 531 
Q 828 903 1448 1529 
Q 2069 2156 2228 2338 
Q 2531 2678 2651 2914 
Q 2772 3150 2772 3378 
Q 2772 3750 2511 3984 
Q 2250 4219 1831 4219 
Q 1534 4219 1204 4116 
Q 875 4013 500 3803 
L 500 4441 
Q 881 4594 1212 4672 
Q 1544 4750 1819 4750 
Q 2544 4750 2975 4387 
Q 3406 4025 3406 3419 
Q 3406 3131 3298 2873 
Q 3191 2616 2906 2266 
Q 2828 2175 2409 1742 
Q 1991 1309 1228 531 
z
" transform="scale(0.015625)"/>
        <path id="DejaVuSans-30" d="M 2034 4250 
Q 1547 4250 1301 3770 
Q 1056 3291 1056 2328 
Q 1056 1369 1301 889 
Q 1547 409 2034 409 
Q 2525 409 2770 889 
Q 3016 1369 3016 2328 
Q 3016 3291 2770 3770 
Q 2525 4250 2034 4250 
z
M 2034 4750 
Q 2819 4750 3233 4129 
Q 3647 3509 3647 2328 
Q 3647 1150 3233 529 
Q 2819 -91 2034 -91 
Q 1250 -91 836 529 
Q 422 1150 422 2328 
Q 422 3509 836 4129 
Q 1250 4750 2034 4750 
z
" transform="scale(0.015625)"/>
       </defs>
       <use xlink:href="#DejaVuSans-2212"/>
       <use xlink:href="#DejaVuSans-32" transform="translate(83.789062 0)"/>
       <use xlink:href="#DejaVuSans-30" transform="translate(147.412109 0)"/>
      </g>
     </g>
    </g>
    <g id="xtick_2">
     <g id="line2d_2">
      <g>
       <use xlink:href="#m1ee7b080da" x="115.3575" y="214.36" style="stroke: #000000; stroke-width: 0.8"/>
      </g>
     </g>
     <g id="text_2">
      <!-- −18 -->
      <g transform="translate(104.805156 228.958438) scale(0.1 -0.1)">
       <defs>
        <path id="DejaVuSans-31" d="M 794 531 
L 1825 531 
L 1825 4091 
L 703 3866 
L 703 4441 
L 1819 4666 
L 2450 4666 
L 2450 531 
L 3481 531 
L 3481 0 
L 794 0 
L 794 531 
z
" transform="scale(0.015625)"/>
        <path id="DejaVuSans-38" d="M 2034 2216 
Q 1584 2216 1326 1975 
Q 1069 1734 1069 1313 
Q 1069 891 1326 650 
Q 1584 409 2034 409 
Q 2484 409 2743 651 
Q 3003 894 3003 1313 
Q 3003 1734 2745 1975 
Q 2488 2216 2034 2216 
z
M 1403 2484 
Q 997 2584 770 2862 
Q 544 3141 544 3541 
Q 544 4100 942 4425 
Q 1341 4750 2034 4750 
Q 2731 4750 3128 4425 
Q 3525 4100 3525 3541 
Q 3525 3141 3298 2862 
Q 3072 2584 2669 2484 
Q 3125 2378 3379 2068 
Q 3634 1759 3634 1313 
Q 3634 634 3220 271 
Q 2806 -91 2034 -91 
Q 1263 -91 848 271 
Q 434 634 434 1313 
Q 434 1759 690 2068 
Q 947 2378 1403 2484 
z
M 1172 3481 
Q 1172 3119 1398 2916 
Q 1625 2713 2034 2713 
Q 2441 2713 2670 2916 
Q 2900 3119 2900 3481 
Q 2900 3844 2670 4047 
Q 2441 4250 2034 4250 
Q 1625 4250 1398 4047 
Q 1172 3844 1172 3481 
z
" transform="scale(0.015625)"/>
       </defs>
       <use xlink:href="#DejaVuSans-2212"/>
       <use xlink:href="#DejaVuSans-31" transform="translate(83.789062 0)"/>
       <use xlink:href="#DejaVuSans-38" transform="translate(147.412109 0)"/>
      </g>
     </g>
    </g>
    <g id="xtick_3">
     <g id="line2d_3">
      <g>
       <use xlink:href="#m1ee7b080da" x="209.43" y="214.36" style="stroke: #000000; stroke-width: 0.8"/>
      </g>
     </g>
     <g id="text_3">
      <!-- −16 -->
      <g transform="translate(198.877656 228.958438) scale(0.1 -0.1)">
       <defs>
        <path id="DejaVuSans-36" d="M 2113 2584 
Q 1688 2584 1439 2293 
Q 1191 2003 1191 1497 
Q 1191 994 1439 701 
Q 1688 409 2113 409 
Q 2538 409 2786 701 
Q 3034 994 3034 1497 
Q 3034 2003 2786 2293 
Q 2538 2584 2113 2584 
z
M 3366 4563 
L 3366 3988 
Q 3128 4100 2886 4159 
Q 2644 4219 2406 4219 
Q 1781 4219 1451 3797 
Q 1122 3375 1075 2522 
Q 1259 2794 1537 2939 
Q 1816 3084 2150 3084 
Q 2853 3084 3261 2657 
Q 3669 2231 3669 1497 
Q 3669 778 3244 343 
Q 2819 -91 2113 -91 
Q 1303 -91 875 529 
Q 447 1150 447 2328 
Q 447 3434 972 4092 
Q 1497 4750 2381 4750 
Q 2619 4750 2861 4703 
Q 3103 4656 3366 4563 
z
" transform="scale(0.015625)"/>
       </defs>
       <use xlink:href="#DejaVuSans-2212"/>
       <use xlink:href="#DejaVuSans-31" transform="translate(83.789062 0)"/>
       <use xlink:href="#DejaVuSans-36" transform="translate(147.412109 0)"/>
      </g>
     </g>
    </g>
    <g id="xtick_4">
     <g id="line2d_4">
      <g>
       <use xlink:href="#m1ee7b080da" x="303.5025" y="214.36" style="stroke: #000000; stroke-width: 0.8"/>
      </g>
     </g>
     <g id="text_4">
      <!-- −14 -->
      <g transform="translate(292.950156 228.958438) scale(0.1 -0.1)">
       <defs>
        <path id="DejaVuSans-34" d="M 2419 4116 
L 825 1625 
L 2419 1625 
L 2419 4116 
z
M 2253 4666 
L 3047 4666 
L 3047 1625 
L 3713 1625 
L 3713 1100 
L 3047 1100 
L 3047 0 
L 2419 0 
L 2419 1100 
L 313 1100 
L 313 1709 
L 2253 4666 
z
" transform="scale(0.015625)"/>
       </defs>
       <use xlink:href="#DejaVuSans-2212"/>
       <use xlink:href="#DejaVuSans-31" transform="translate(83.789062 0)"/>
       <use xlink:href="#DejaVuSans-34" transform="translate(147.412109 0)"/>
      </g>
     </g>
    </g>
    <g id="xtick_5">
     <g id="line2d_5">
      <g>
       <use xlink:href="#m1ee7b080da" x="397.575" y="214.36" style="stroke: #000000; stroke-width: 0.8"/>
      </g>
     </g>
     <g id="text_5">
      <!-- −12 -->
      <g transform="translate(387.022656 228.958438) scale(0.1 -0.1)">
       <use xlink:href="#DejaVuSans-2212"/>
       <use xlink:href="#DejaVuSans-31" transform="translate(83.789062 0)"/>
       <use xlink:href="#DejaVuSans-32" transform="translate(147.412109 0)"/>
      </g>
     </g>
    </g>
    <g id="xtick_6">
     <g id="line2d_6">
      <g>
       <use xlink:href="#m1ee7b080da" x="491.6475" y="214.36" style="stroke: #000000; stroke-width: 0.8"/>
      </g>
     </g>
     <g id="text_6">
      <!-- −10 -->
      <g transform="translate(481.095156 228.958438) scale(0.1 -0.1)">
       <use xlink:href="#DejaVuSans-2212"/>
       <use xlink:href="#DejaVuSans-31" transform="translate(83.789062 0)"/>
       <use xlink:href="#DejaVuSans-30" transform="translate(147.412109 0)"/>
      </g>
     </g>
    </g>
    <g id="xtick_7">
     <g id="line2d_7">
      <g>
       <use xlink:href="#m1ee7b080da" x="585.72" y="214.36" style="stroke: #000000; stroke-width: 0.8"/>
      </g>
     </g>
     <g id="text_7">
      <!-- −8 -->
      <g transform="translate(578.348906 228.958438) scale(0.1 -0.1)">
       <use xlink:href="#DejaVuSans-2212"/>
       <use xlink:href="#DejaVuSans-38" transform="translate(83.789062 0)"/>
      </g>
     </g>
    </g>
    <g id="xtick_8">
     <g id="line2d_8">
      <g>
       <use xlink:href="#m1ee7b080da" x="679.7925" y="214.36" style="stroke: #000000; stroke-width: 0.8"/>
      </g>
     </g>
     <g id="text_8">
      <!-- −6 -->
      <g transform="translate(672.421406 228.958438) scale(0.1 -0.1)">
       <use xlink:href="#DejaVuSans-2212"/>
       <use xlink:href="#DejaVuSans-36" transform="translate(83.789062 0)"/>
      </g>
     </g>
    </g>
    <g id="xtick_9">
     <g id="line2d_9">
      <g>
       <use xlink:href="#m1ee7b080da" x="773.865" y="214.36" style="stroke: #000000; stroke-width: 0.8"/>
      </g>
     </g>
     <g id="text_9">
      <!-- −4 -->
      <g transform="translate(766.493906 228.958438) scale(0.1 -0.1)">
       <use xlink:href="#DejaVuSans-2212"/>
       <use xlink:href="#DejaVuSans-34" transform="translate(83.789062 0)"/>
      </g>
     </g>
    </g>
    <g id="text_10">
     <!-- $\log_{10}(E\,/\,\mathrm{eV})$   (sensor frequency via $E=h\nu$) -->
     <g transform="translate(289.725 242.638125) scale(0.1 -0.1)">
      <defs>
       <path id="DejaVuSans-6c" d="M 603 4863 
L 1178 4863 
L 1178 0 
L 603 0 
L 603 4863 
z
" transform="scale(0.015625)"/>
       <path id="DejaVuSans-6f" d="M 1959 3097 
Q 1497 3097 1228 2736 
Q 959 2375 959 1747 
Q 959 1119 1226 758 
Q 1494 397 1959 397 
Q 2419 397 2687 759 
Q 2956 1122 2956 1747 
Q 2956 2369 2687 2733 
Q 2419 3097 1959 3097 
z
M 1959 3584 
Q 2709 3584 3137 3096 
Q 3566 2609 3566 1747 
Q 3566 888 3137 398 
Q 2709 -91 1959 -91 
Q 1206 -91 779 398 
Q 353 888 353 1747 
Q 353 2609 779 3096 
Q 1206 3584 1959 3584 
z
" transform="scale(0.015625)"/>
       <path id="DejaVuSans-67" d="M 2906 1791 
Q 2906 2416 2648 2759 
Q 2391 3103 1925 3103 
Q 1463 3103 1205 2759 
Q 947 2416 947 1791 
Q 947 1169 1205 825 
Q 1463 481 1925 481 
Q 2391 481 2648 825 
Q 2906 1169 2906 1791 
z
M 3481 434 
Q 3481 -459 3084 -895 
Q 2688 -1331 1869 -1331 
Q 1566 -1331 1297 -1286 
Q 1028 -1241 775 -1147 
L 775 -588 
Q 1028 -725 1275 -790 
Q 1522 -856 1778 -856 
Q 2344 -856 2625 -561 
Q 2906 -266 2906 331 
L 2906 616 
Q 2728 306 2450 153 
Q 2172 0 1784 0 
Q 1141 0 747 490 
Q 353 981 353 1791 
Q 353 2603 747 3093 
Q 1141 3584 1784 3584 
Q 2172 3584 2450 3431 
Q 2728 3278 2906 2969 
L 2906 3500 
L 3481 3500 
L 3481 434 
z
" transform="scale(0.015625)"/>
       <path id="DejaVuSans-28" d="M 1984 4856 
Q 1566 4138 1362 3434 
Q 1159 2731 1159 2009 
Q 1159 1288 1364 580 
Q 1569 -128 1984 -844 
L 1484 -844 
Q 1016 -109 783 600 
Q 550 1309 550 2009 
Q 550 2706 781 3412 
Q 1013 4119 1484 4856 
L 1984 4856 
z
" transform="scale(0.015625)"/>
       <path id="DejaVuSans-Oblique-45" d="M 1081 4666 
L 4031 4666 
L 3928 4134 
L 1606 4134 
L 1338 2753 
L 3566 2753 
L 3463 2222 
L 1234 2222 
L 909 531 
L 3284 531 
L 3181 0 
L 172 0 
L 1081 4666 
z
" transform="scale(0.015625)"/>
       <path id="DejaVuSans-2f" d="M 1625 4666 
L 2156 4666 
L 531 -594 
L 0 -594 
L 1625 4666 
z
" transform="scale(0.015625)"/>
       <path id="DejaVuSans-65" d="M 3597 1894 
L 3597 1613 
L 953 1613 
Q 991 1019 1311 708 
Q 1631 397 2203 397 
Q 2534 397 2845 478 
Q 3156 559 3463 722 
L 3463 178 
Q 3153 47 2828 -22 
Q 2503 -91 2169 -91 
Q 1331 -91 842 396 
Q 353 884 353 1716 
Q 353 2575 817 3079 
Q 1281 3584 2069 3584 
Q 2775 3584 3186 3129 
Q 3597 2675 3597 1894 
z
M 3022 2063 
Q 3016 2534 2758 2815 
Q 2500 3097 2075 3097 
Q 1594 3097 1305 2825 
Q 1016 2553 972 2059 
L 3022 2063 
z
" transform="scale(0.015625)"/>
       <path id="DejaVuSans-56" d="M 1831 0 
L 50 4666 
L 709 4666 
L 2188 738 
L 3669 4666 
L 4325 4666 
L 2547 0 
L 1831 0 
z
" transform="scale(0.015625)"/>
       <path id="DejaVuSans-29" d="M 513 4856 
L 1013 4856 
Q 1481 4119 1714 3412 
Q 1947 2706 1947 2009 
Q 1947 1309 1714 600 
Q 1481 -109 1013 -844 
L 513 -844 
Q 928 -128 1133 580 
Q 1338 1288 1338 2009 
Q 1338 2731 1133 3434 
Q 928 4138 513 4856 
z
" transform="scale(0.015625)"/>
       <path id="DejaVuSans-20" transform="scale(0.015625)"/>
       <path id="DejaVuSans-73" d="M 2834 3397 
L 2834 2853 
Q 2591 2978 2328 3040 
Q 2066 3103 1784 3103 
Q 1356 3103 1142 2972 
Q 928 2841 928 2578 
Q 928 2378 1081 2264 
Q 1234 2150 1697 2047 
L 1894 2003 
Q 2506 1872 2764 1633 
Q 3022 1394 3022 966 
Q 3022 478 2636 193 
Q 2250 -91 1575 -91 
Q 1294 -91 989 -36 
Q 684 19 347 128 
L 347 722 
Q 666 556 975 473 
Q 1284 391 1588 391 
Q 1994 391 2212 530 
Q 2431 669 2431 922 
Q 2431 1156 2273 1281 
Q 2116 1406 1581 1522 
L 1381 1569 
Q 847 1681 609 1914 
Q 372 2147 372 2553 
Q 372 3047 722 3315 
Q 1072 3584 1716 3584 
Q 2034 3584 2315 3537 
Q 2597 3491 2834 3397 
z
" transform="scale(0.015625)"/>
       <path id="DejaVuSans-6e" d="M 3513 2113 
L 3513 0 
L 2938 0 
L 2938 2094 
Q 2938 2591 2744 2837 
Q 2550 3084 2163 3084 
Q 1697 3084 1428 2787 
Q 1159 2491 1159 1978 
L 1159 0 
L 581 0 
L 581 3500 
L 1159 3500 
L 1159 2956 
Q 1366 3272 1645 3428 
Q 1925 3584 2291 3584 
Q 2894 3584 3203 3211 
Q 3513 2838 3513 2113 
z
" transform="scale(0.015625)"/>
       <path id="DejaVuSans-72" d="M 2631 2963 
Q 2534 3019 2420 3045 
Q 2306 3072 2169 3072 
Q 1681 3072 1420 2755 
Q 1159 2438 1159 1844 
L 1159 0 
L 581 0 
L 581 3500 
L 1159 3500 
L 1159 2956 
Q 1341 3275 1631 3429 
Q 1922 3584 2338 3584 
Q 2397 3584 2469 3576 
Q 2541 3569 2628 3553 
L 2631 2963 
z
" transform="scale(0.015625)"/>
       <path id="DejaVuSans-66" d="M 2375 4863 
L 2375 4384 
L 1825 4384 
Q 1516 4384 1395 4259 
Q 1275 4134 1275 3809 
L 1275 3500 
L 2222 3500 
L 2222 3053 
L 1275 3053 
L 1275 0 
L 697 0 
L 697 3053 
L 147 3053 
L 147 3500 
L 697 3500 
L 697 3744 
Q 697 4328 969 4595 
Q 1241 4863 1831 4863 
L 2375 4863 
z
" transform="scale(0.015625)"/>
       <path id="DejaVuSans-71" d="M 947 1747 
Q 947 1113 1208 752 
Q 1469 391 1925 391 
Q 2381 391 2643 752 
Q 2906 1113 2906 1747 
Q 2906 2381 2643 2742 
Q 2381 3103 1925 3103 
Q 1469 3103 1208 2742 
Q 947 2381 947 1747 
z
M 2906 525 
Q 2725 213 2448 61 
Q 2172 -91 1784 -91 
Q 1150 -91 751 415 
Q 353 922 353 1747 
Q 353 2572 751 3078 
Q 1150 3584 1784 3584 
Q 2172 3584 2448 3432 
Q 2725 3281 2906 2969 
L 2906 3500 
L 3481 3500 
L 3481 -1331 
L 2906 -1331 
L 2906 525 
z
" transform="scale(0.015625)"/>
       <path id="DejaVuSans-75" d="M 544 1381 
L 544 3500 
L 1119 3500 
L 1119 1403 
Q 1119 906 1312 657 
Q 1506 409 1894 409 
Q 2359 409 2629 706 
Q 2900 1003 2900 1516 
L 2900 3500 
L 3475 3500 
L 3475 0 
L 2900 0 
L 2900 538 
Q 2691 219 2414 64 
Q 2138 -91 1772 -91 
Q 1169 -91 856 284 
Q 544 659 544 1381 
z
M 1991 3584 
L 1991 3584 
z
" transform="scale(0.015625)"/>
       <path id="DejaVuSans-63" d="M 3122 3366 
L 3122 2828 
Q 2878 2963 2633 3030 
Q 2388 3097 2138 3097 
Q 1578 3097 1268 2742 
Q 959 2388 959 1747 
Q 959 1106 1268 751 
Q 1578 397 2138 397 
Q 2388 397 2633 464 
Q 2878 531 3122 666 
L 3122 134 
Q 2881 22 2623 -34 
Q 2366 -91 2075 -91 
Q 1284 -91 818 406 
Q 353 903 353 1747 
Q 353 2603 823 3093 
Q 1294 3584 2113 3584 
Q 2378 3584 2631 3529 
Q 2884 3475 3122 3366 
z
" transform="scale(0.015625)"/>
       <path id="DejaVuSans-79" d="M 2059 -325 
Q 1816 -950 1584 -1140 
Q 1353 -1331 966 -1331 
L 506 -1331 
L 506 -850 
L 844 -850 
Q 1081 -850 1212 -737 
Q 1344 -625 1503 -206 
L 1606 56 
L 191 3500 
L 800 3500 
L 1894 763 
L 2988 3500 
L 3597 3500 
L 2059 -325 
z
" transform="scale(0.015625)"/>
       <path id="DejaVuSans-76" d="M 191 3500 
L 800 3500 
L 1894 563 
L 2988 3500 
L 3597 3500 
L 2284 0 
L 1503 0 
L 191 3500 
z
" transform="scale(0.015625)"/>
       <path id="DejaVuSans-69" d="M 603 3500 
L 1178 3500 
L 1178 0 
L 603 0 
L 603 3500 
z
M 603 4863 
L 1178 4863 
L 1178 4134 
L 603 4134 
L 603 4863 
z
" transform="scale(0.015625)"/>
       <path id="DejaVuSans-61" d="M 2194 1759 
Q 1497 1759 1228 1600 
Q 959 1441 959 1056 
Q 959 750 1161 570 
Q 1363 391 1709 391 
Q 2188 391 2477 730 
Q 2766 1069 2766 1631 
L 2766 1759 
L 2194 1759 
z
M 3341 1997 
L 3341 0 
L 2766 0 
L 2766 531 
Q 2569 213 2275 61 
Q 1981 -91 1556 -91 
Q 1019 -91 701 211 
Q 384 513 384 1019 
Q 384 1609 779 1909 
Q 1175 2209 1959 2209 
L 2766 2209 
L 2766 2266 
Q 2766 2663 2505 2880 
Q 2244 3097 1772 3097 
Q 1472 3097 1187 3025 
Q 903 2953 641 2809 
L 641 3341 
Q 956 3463 1253 3523 
Q 1550 3584 1831 3584 
Q 2591 3584 2966 3190 
Q 3341 2797 3341 1997 
z
" transform="scale(0.015625)"/>
       <path id="DejaVuSans-3d" d="M 678 2906 
L 4684 2906 
L 4684 2381 
L 678 2381 
L 678 2906 
z
M 678 1631 
L 4684 1631 
L 4684 1100 
L 678 1100 
L 678 1631 
z
" transform="scale(0.015625)"/>
       <path id="DejaVuSans-Oblique-68" d="M 3566 2113 
L 3156 0 
L 2578 0 
L 2988 2091 
Q 3016 2238 3031 2350 
Q 3047 2463 3047 2528 
Q 3047 2791 2881 2937 
Q 2716 3084 2419 3084 
Q 1956 3084 1617 2771 
Q 1278 2459 1178 1941 
L 800 0 
L 225 0 
L 1172 4863 
L 1747 4863 
L 1375 2950 
Q 1594 3244 1934 3414 
Q 2275 3584 2650 3584 
Q 3113 3584 3367 3334 
Q 3622 3084 3622 2631 
Q 3622 2519 3608 2391 
Q 3594 2263 3566 2113 
z
" transform="scale(0.015625)"/>
       <path id="DejaVuSans-Oblique-3bd" d="M 959 0 
L 572 3500 
L 1191 3500 
L 1522 563 
Q 1972 950 2391 1488 
Q 2706 1891 2788 2241 
Q 2825 2406 2809 2719 
Q 2794 3091 2544 3500 
L 3125 3500 
L 3125 3500 
Q 3288 3222 3353 2834 
Q 3416 2478 3369 2234 
Q 3250 1622 2719 1075 
Q 2025 363 1572 0 
L 959 0 
z
" transform="scale(0.015625)"/>
      </defs>
      <use xlink:href="#DejaVuSans-6c" transform="translate(0 0.015625)"/>
      <use xlink:href="#DejaVuSans-6f" transform="translate(27.783203 0.015625)"/>
      <use xlink:href="#DejaVuSans-67" transform="translate(88.964844 0.015625)"/>
      <use xlink:href="#DejaVuSans-31" transform="translate(153.398438 -16.390625) scale(0.7)"/>
      <use xlink:href="#DejaVuSans-30" transform="translate(197.93457 -16.390625) scale(0.7)"/>
      <use xlink:href="#DejaVuSans-28" transform="translate(261.440754 0.015625)"/>
      <use xlink:href="#DejaVuSans-Oblique-45" transform="translate(300.454426 0.015625)"/>
      <use xlink:href="#DejaVuSans-2f" transform="translate(379.873696 0.015625)"/>
      <use xlink:href="#DejaVuSans-65" transform="translate(429.800779 0.015625)"/>
      <use xlink:href="#DejaVuSans-56" transform="translate(491.324216 0.015625)"/>
      <use xlink:href="#DejaVuSans-29" transform="translate(559.732419 0.015625)"/>
      <use xlink:href="#DejaVuSans-20" transform="translate(598.746091 0.015625)"/>
      <use xlink:href="#DejaVuSans-20" transform="translate(630.533201 0.015625)"/>
      <use xlink:href="#DejaVuSans-20" transform="translate(662.32031 0.015625)"/>
      <use xlink:href="#DejaVuSans-28" transform="translate(694.107419 0.015625)"/>
      <use xlink:href="#DejaVuSans-73" transform="translate(733.121091 0.015625)"/>
      <use xlink:href="#DejaVuSans-65" transform="translate(785.220701 0.015625)"/>
      <use xlink:href="#DejaVuSans-6e" transform="translate(846.744138 0.015625)"/>
      <use xlink:href="#DejaVuSans-73" transform="translate(910.123044 0.015625)"/>
      <use xlink:href="#DejaVuSans-6f" transform="translate(962.222654 0.015625)"/>
      <use xlink:href="#DejaVuSans-72" transform="translate(1023.404294 0.015625)"/>
      <use xlink:href="#DejaVuSans-20" transform="translate(1064.517576 0.015625)"/>
      <use xlink:href="#DejaVuSans-66" transform="translate(1096.304685 0.015625)"/>
      <use xlink:href="#DejaVuSans-72" transform="translate(1131.509763 0.015625)"/>
      <use xlink:href="#DejaVuSans-65" transform="translate(1172.623044 0.015625)"/>
      <use xlink:href="#DejaVuSans-71" transform="translate(1234.146482 0.015625)"/>
      <use xlink:href="#DejaVuSans-75" transform="translate(1297.623044 0.015625)"/>
      <use xlink:href="#DejaVuSans-65" transform="translate(1361.001951 0.015625)"/>
      <use xlink:href="#DejaVuSans-6e" transform="translate(1422.525388 0.015625)"/>
      <use xlink:href="#DejaVuSans-63" transform="translate(1485.904294 0.015625)"/>
      <use xlink:href="#DejaVuSans-79" transform="translate(1540.884763 0.015625)"/>
      <use xlink:href="#DejaVuSans-20" transform="translate(1600.064451 0.015625)"/>
      <use xlink:href="#DejaVuSans-76" transform="translate(1631.85156 0.015625)"/>
      <use xlink:href="#DejaVuSans-69" transform="translate(1691.031248 0.015625)"/>
      <use xlink:href="#DejaVuSans-61" transform="translate(1718.814451 0.015625)"/>
      <use xlink:href="#DejaVuSans-20" transform="translate(1780.093748 0.015625)"/>
      <use xlink:href="#DejaVuSans-Oblique-45" transform="translate(1811.880857 0.015625)"/>
      <use xlink:href="#DejaVuSans-3d" transform="translate(1894.546873 0.015625)"/>
      <use xlink:href="#DejaVuSans-Oblique-68" transform="translate(1997.818357 0.015625)"/>
      <use xlink:href="#DejaVuSans-Oblique-3bd" transform="translate(2061.197263 0.015625)"/>
      <use xlink:href="#DejaVuSans-29" transform="translate(2117.056638 0.015625)"/>
     </g>
    </g>
   </g>
   <g id="matplotlib.axis_2"/>
   <g id="line2d_10">
    <path d="M 426.574995 214.36 
L 426.574995 26.88 
" clip-path="url(#p0c6fa80c08)" style="fill: none; stroke: #bc6c25; stroke-opacity: 0.6; stroke-width: 0.8; stroke-linecap: square"/>
   </g>
   <g id="line2d_11">
    <path d="M 473.611245 214.36 
L 473.611245 26.88 
" clip-path="url(#p0c6fa80c08)" style="fill: none; stroke: #bc6c25; stroke-opacity: 0.6; stroke-width: 0.8; stroke-linecap: square"/>
   </g>
   <g id="line2d_12">
    <path d="M 520.647495 214.36 
L 520.647495 26.88 
" clip-path="url(#p0c6fa80c08)" style="fill: none; stroke: #bc6c25; stroke-opacity: 0.6; stroke-width: 0.8; stroke-linecap: square"/>
   </g>
   <g id="line2d_13">
    <path d="M 567.683745 214.36 
L 567.683745 26.88 
" clip-path="url(#p0c6fa80c08)" style="fill: none; stroke: #bc6c25; stroke-opacity: 0.6; stroke-width: 0.8; stroke-linecap: square"/>
   </g>
   <g id="line2d_14">
    <path d="M 694.633173 214.36 
L 694.633173 26.88 
" clip-path="url(#p0c6fa80c08)" style="fill: none; stroke: #bc6c25; stroke-opacity: 0.6; stroke-width: 0.8; stroke-linecap: square"/>
   </g>
   <g id="line2d_15">
    <path d="M 699.352947 214.36 
L 699.352947 26.88 
" clip-path="url(#p0c6fa80c08)" style="fill: none; stroke: #bc6c25; stroke-opacity: 0.6; stroke-width: 0.8; stroke-linecap: square"/>
   </g>
   <g id="line2d_16">
    <path d="M 704.072721 214.36 
L 704.072721 26.88 
" clip-path="url(#p0c6fa80c08)" style="fill: none; stroke: #bc6c25; stroke-opacity: 0.6; stroke-width: 0.8; stroke-linecap: square"/>
   </g>
   <g id="line2d_17">
    <path d="M 708.792495 214.36 
L 708.792495 26.88 
" clip-path="url(#p0c6fa80c08)" style="fill: none; stroke: #bc6c25; stroke-opacity: 0.6; stroke-width: 0.8; stroke-linecap: square"/>
   </g>
   <g id="line2d_18">
    <path d="M 473.611245 214.36 
L 473.611245 26.88 
" clip-path="url(#p0c6fa80c08)" style="fill: none; stroke: #bc6c25; stroke-opacity: 0.6; stroke-width: 0.8; stroke-linecap: square"/>
   </g>
   <g id="line2d_19">
    <path d="M 520.647495 214.36 
L 520.647495 26.88 
" clip-path="url(#p0c6fa80c08)" style="fill: none; stroke: #bc6c25; stroke-opacity: 0.6; stroke-width: 0.8; stroke-linecap: square"/>
   </g>
   <g id="line2d_20">
    <path d="M 567.683745 214.36 
L 567.683745 26.88 
" clip-path="url(#p0c6fa80c08)" style="fill: none; stroke: #bc6c25; stroke-opacity: 0.6; stroke-width: 0.8; stroke-linecap: square"/>
   </g>
   <g id="line2d_21">
    <path d="M 614.719995 214.36 
L 614.719995 26.88 
" clip-path="url(#p0c6fa80c08)" style="fill: none; stroke: #bc6c25; stroke-opacity: 0.6; stroke-width: 0.8; stroke-linecap: square"/>
   </g>
   <g id="line2d_22">
    <path d="M 694.633173 214.36 
L 694.633173 26.88 
" clip-path="url(#p0c6fa80c08)" style="fill: none; stroke: #bc6c25; stroke-opacity: 0.6; stroke-width: 0.8; stroke-linecap: square"/>
   </g>
   <g id="line2d_23">
    <path d="M 144.357495 214.36 
L 144.357495 26.88 
" clip-path="url(#p0c6fa80c08)" style="fill: none; stroke: #1d3557; stroke-opacity: 0.6; stroke-width: 0.8; stroke-linecap: square"/>
   </g>
   <g id="line2d_24">
    <path d="M 191.393745 214.36 
L 191.393745 26.88 
" clip-path="url(#p0c6fa80c08)" style="fill: none; stroke: #1d3557; stroke-opacity: 0.6; stroke-width: 0.8; stroke-linecap: square"/>
   </g>
   <g id="line2d_25">
    <path d="M 238.429995 214.36 
L 238.429995 26.88 
" clip-path="url(#p0c6fa80c08)" style="fill: none; stroke: #1d3557; stroke-opacity: 0.6; stroke-width: 0.8; stroke-linecap: square"/>
   </g>
   <g id="line2d_26">
    <path d="M 107.940858 214.36 
L 107.940858 26.88 
" clip-path="url(#p0c6fa80c08)" style="fill: none; stroke: #1d3557; stroke-opacity: 0.6; stroke-width: 0.8; stroke-linecap: square"/>
   </g>
   <g id="line2d_27">
    <path d="M 162.39375 214.36 
L 162.39375 26.88 
" clip-path="url(#p0c6fa80c08)" style="fill: none; stroke: #1d3557; stroke-opacity: 0.6; stroke-width: 0.8; stroke-linecap: square"/>
   </g>
   <g id="line2d_28">
    <path d="M 256.46625 214.36 
L 256.46625 26.88 
" clip-path="url(#p0c6fa80c08)" style="fill: none; stroke: #1d3557; stroke-opacity: 0.6; stroke-width: 0.8; stroke-linecap: square"/>
   </g>
   <g id="line2d_29">
    <path d="M 350.53875 214.36 
L 350.53875 26.88 
" clip-path="url(#p0c6fa80c08)" style="fill: none; stroke: #1d3557; stroke-opacity: 0.6; stroke-width: 0.8; stroke-linecap: square"/>
   </g>
   <g id="patch_5">
    <path d="M 21.285 214.36 
L 21.285 26.88 
" style="fill: none; stroke: #000000; stroke-width: 0.8; stroke-linejoin: miter; stroke-linecap: square"/>
   </g>
   <g id="patch_6">
    <path d="M 773.865 214.36 
L 773.865 26.88 
" style="fill: none; stroke: #000000; stroke-width: 0.8; stroke-linejoin: miter; stroke-linecap: square"/>
   </g>
   <g id="patch_7">
    <path d="M 21.285 214.36 
L 773.865 214.36 
" style="fill: none; stroke: #000000; stroke-width: 0.8; stroke-linejoin: miter; stroke-linecap: square"/>
   </g>
   <g id="patch_8">
    <path d="M 21.285 26.88 
L 773.865 26.88 
" style="fill: none; stroke: #000000; stroke-width: 0.8; stroke-linejoin: miter; stroke-linecap: square"/>
   </g>
   <g id="text_11">
    <!-- gravimeter -->
    <g transform="translate(189.998745 108.690422) scale(0.09 -0.09)">
     <defs>
      <path id="DejaVuSans-6d" d="M 3328 2828 
Q 3544 3216 3844 3400 
Q 4144 3584 4550 3584 
Q 5097 3584 5394 3201 
Q 5691 2819 5691 2113 
L 5691 0 
L 5113 0 
L 5113 2094 
Q 5113 2597 4934 2840 
Q 4756 3084 4391 3084 
Q 3944 3084 3684 2787 
Q 3425 2491 3425 1978 
L 3425 0 
L 2847 0 
L 2847 2094 
Q 2847 2600 2669 2842 
Q 2491 3084 2119 3084 
Q 1678 3084 1418 2786 
Q 1159 2488 1159 1978 
L 1159 0 
L 581 0 
L 581 3500 
L 1159 3500 
L 1159 2956 
Q 1356 3278 1631 3431 
Q 1906 3584 2284 3584 
Q 2666 3584 2933 3390 
Q 3200 3197 3328 2828 
z
" transform="scale(0.015625)"/>
      <path id="DejaVuSans-74" d="M 1172 4494 
L 1172 3500 
L 2356 3500 
L 2356 3053 
L 1172 3053 
L 1172 1153 
Q 1172 725 1289 603 
Q 1406 481 1766 481 
L 2356 481 
L 2356 0 
L 1766 0 
Q 1100 0 847 248 
Q 594 497 594 1153 
L 594 3053 
L 172 3053 
L 172 3500 
L 594 3500 
L 594 4494 
L 1172 4494 
z
" transform="scale(0.015625)"/>
     </defs>
     <use xlink:href="#DejaVuSans-67"/>
     <use xlink:href="#DejaVuSans-72" transform="translate(63.476562 0)"/>
     <use xlink:href="#DejaVuSans-61" transform="translate(104.589844 0)"/>
     <use xlink:href="#DejaVuSans-76" transform="translate(165.869141 0)"/>
     <use xlink:href="#DejaVuSans-69" transform="translate(225.048828 0)"/>
     <use xlink:href="#DejaVuSans-6d" transform="translate(252.832031 0)"/>
     <use xlink:href="#DejaVuSans-65" transform="translate(350.244141 0)"/>
     <use xlink:href="#DejaVuSans-74" transform="translate(411.767578 0)"/>
     <use xlink:href="#DejaVuSans-65" transform="translate(450.976562 0)"/>
     <use xlink:href="#DejaVuSans-72" transform="translate(512.5 0)"/>
    </g>
    <!-- µHz–kHz -->
    <g transform="translate(195.701088 118.768453) scale(0.09 -0.09)">
     <defs>
      <path id="DejaVuSans-b5" d="M 544 -1331 
L 544 3500 
L 1119 3500 
L 1119 1325 
Q 1119 872 1334 640 
Q 1550 409 1972 409 
Q 2434 409 2667 671 
Q 2900 934 2900 1459 
L 2900 3500 
L 3475 3500 
L 3475 806 
Q 3475 619 3529 530 
Q 3584 441 3700 441 
Q 3728 441 3778 458 
Q 3828 475 3916 513 
L 3916 50 
Q 3788 -22 3673 -56 
Q 3559 -91 3450 -91 
Q 3234 -91 3106 31 
Q 2978 153 2931 403 
Q 2775 156 2548 32 
Q 2322 -91 2016 -91 
Q 1697 -91 1473 31 
Q 1250 153 1119 397 
L 1119 -1331 
L 544 -1331 
z
" transform="scale(0.015625)"/>
      <path id="DejaVuSans-48" d="M 628 4666 
L 1259 4666 
L 1259 2753 
L 3553 2753 
L 3553 4666 
L 4184 4666 
L 4184 0 
L 3553 0 
L 3553 2222 
L 1259 2222 
L 1259 0 
L 628 0 
L 628 4666 
z
" transform="scale(0.015625)"/>
      <path id="DejaVuSans-7a" d="M 353 3500 
L 3084 3500 
L 3084 2975 
L 922 459 
L 3084 459 
L 3084 0 
L 275 0 
L 275 525 
L 2438 3041 
L 353 3041 
L 353 3500 
z
" transform="scale(0.015625)"/>
      <path id="DejaVuSans-2013" d="M 313 1978 
L 2888 1978 
L 2888 1528 
L 313 1528 
L 313 1978 
z
" transform="scale(0.015625)"/>
      <path id="DejaVuSans-6b" d="M 581 4863 
L 1159 4863 
L 1159 1991 
L 2875 3500 
L 3609 3500 
L 1753 1863 
L 3688 0 
L 2938 0 
L 1159 1709 
L 1159 0 
L 581 0 
L 581 4863 
z
" transform="scale(0.015625)"/>
     </defs>
     <use xlink:href="#DejaVuSans-b5"/>
     <use xlink:href="#DejaVuSans-48" transform="translate(63.623047 0)"/>
     <use xlink:href="#DejaVuSans-7a" transform="translate(138.818359 0)"/>
     <use xlink:href="#DejaVuSans-2013" transform="translate(191.308594 0)"/>
     <use xlink:href="#DejaVuSans-6b" transform="translate(241.308594 0)"/>
     <use xlink:href="#DejaVuSans-48" transform="translate(299.21875 0)"/>
     <use xlink:href="#DejaVuSans-7a" transform="translate(374.414062 0)"/>
    </g>
   </g>
   <g id="text_12">
    <!-- SQUID -->
    <g transform="translate(459.126167 168.684022) scale(0.09 -0.09)">
     <defs>
      <path id="DejaVuSans-53" d="M 3425 4513 
L 3425 3897 
Q 3066 4069 2747 4153 
Q 2428 4238 2131 4238 
Q 1616 4238 1336 4038 
Q 1056 3838 1056 3469 
Q 1056 3159 1242 3001 
Q 1428 2844 1947 2747 
L 2328 2669 
Q 3034 2534 3370 2195 
Q 3706 1856 3706 1288 
Q 3706 609 3251 259 
Q 2797 -91 1919 -91 
Q 1588 -91 1214 -16 
Q 841 59 441 206 
L 441 856 
Q 825 641 1194 531 
Q 1563 422 1919 422 
Q 2459 422 2753 634 
Q 3047 847 3047 1241 
Q 3047 1584 2836 1778 
Q 2625 1972 2144 2069 
L 1759 2144 
Q 1053 2284 737 2584 
Q 422 2884 422 3419 
Q 422 4038 858 4394 
Q 1294 4750 2059 4750 
Q 2388 4750 2728 4690 
Q 3069 4631 3425 4513 
z
" transform="scale(0.015625)"/>
      <path id="DejaVuSans-51" d="M 2522 4238 
Q 1834 4238 1429 3725 
Q 1025 3213 1025 2328 
Q 1025 1447 1429 934 
Q 1834 422 2522 422 
Q 3209 422 3611 934 
Q 4013 1447 4013 2328 
Q 4013 3213 3611 3725 
Q 3209 4238 2522 4238 
z
M 3406 84 
L 4238 -825 
L 3475 -825 
L 2784 -78 
Q 2681 -84 2626 -87 
Q 2572 -91 2522 -91 
Q 1538 -91 948 567 
Q 359 1225 359 2328 
Q 359 3434 948 4092 
Q 1538 4750 2522 4750 
Q 3503 4750 4090 4092 
Q 4678 3434 4678 2328 
Q 4678 1516 4351 937 
Q 4025 359 3406 84 
z
" transform="scale(0.015625)"/>
      <path id="DejaVuSans-55" d="M 556 4666 
L 1191 4666 
L 1191 1831 
Q 1191 1081 1462 751 
Q 1734 422 2344 422 
Q 2950 422 3222 751 
Q 3494 1081 3494 1831 
L 3494 4666 
L 4128 4666 
L 4128 1753 
Q 4128 841 3676 375 
Q 3225 -91 2344 -91 
Q 1459 -91 1007 375 
Q 556 841 556 1753 
L 556 4666 
z
" transform="scale(0.015625)"/>
      <path id="DejaVuSans-49" d="M 628 4666 
L 1259 4666 
L 1259 0 
L 628 0 
L 628 4666 
z
" transform="scale(0.015625)"/>
      <path id="DejaVuSans-44" d="M 1259 4147 
L 1259 519 
L 2022 519 
Q 2988 519 3436 956 
Q 3884 1394 3884 2338 
Q 3884 3275 3436 3711 
Q 2988 4147 2022 4147 
L 1259 4147 
z
M 628 4666 
L 1925 4666 
Q 3281 4666 3915 4102 
Q 4550 3538 4550 2338 
Q 4550 1131 3912 565 
Q 3275 0 1925 0 
L 628 0 
L 628 4666 
z
" transform="scale(0.015625)"/>
     </defs>
     <use xlink:href="#DejaVuSans-53"/>
     <use xlink:href="#DejaVuSans-51" transform="translate(63.476562 0)"/>
     <use xlink:href="#DejaVuSans-55" transform="translate(142.1875 0)"/>
     <use xlink:href="#DejaVuSans-49" transform="translate(215.380859 0)"/>
     <use xlink:href="#DejaVuSans-44" transform="translate(244.873047 0)"/>
    </g>
    <!-- 0.1 Hz–1 GHz -->
    <g transform="translate(443.502729 178.762053) scale(0.09 -0.09)">
     <defs>
      <path id="DejaVuSans-2e" d="M 684 794 
L 1344 794 
L 1344 0 
L 684 0 
L 684 794 
z
" transform="scale(0.015625)"/>
      <path id="DejaVuSans-47" d="M 3809 666 
L 3809 1919 
L 2778 1919 
L 2778 2438 
L 4434 2438 
L 4434 434 
Q 4069 175 3628 42 
Q 3188 -91 2688 -91 
Q 1594 -91 976 548 
Q 359 1188 359 2328 
Q 359 3472 976 4111 
Q 1594 4750 2688 4750 
Q 3144 4750 3555 4637 
Q 3966 4525 4313 4306 
L 4313 3634 
Q 3963 3931 3569 4081 
Q 3175 4231 2741 4231 
Q 1884 4231 1454 3753 
Q 1025 3275 1025 2328 
Q 1025 1384 1454 906 
Q 1884 428 2741 428 
Q 3075 428 3337 486 
Q 3600 544 3809 666 
z
" transform="scale(0.015625)"/>
     </defs>
     <use xlink:href="#DejaVuSans-30"/>
     <use xlink:href="#DejaVuSans-2e" transform="translate(63.623047 0)"/>
     <use xlink:href="#DejaVuSans-31" transform="translate(95.410156 0)"/>
     <use xlink:href="#DejaVuSans-20" transform="translate(159.033203 0)"/>
     <use xlink:href="#DejaVuSans-48" transform="translate(190.820312 0)"/>
     <use xlink:href="#DejaVuSans-7a" transform="translate(266.015625 0)"/>
     <use xlink:href="#DejaVuSans-2013" transform="translate(318.505859 0)"/>
     <use xlink:href="#DejaVuSans-31" transform="translate(368.505859 0)"/>
     <use xlink:href="#DejaVuSans-20" transform="translate(432.128906 0)"/>
     <use xlink:href="#DejaVuSans-47" transform="translate(463.916016 0)"/>
     <use xlink:href="#DejaVuSans-48" transform="translate(541.40625 0)"/>
     <use xlink:href="#DejaVuSans-7a" transform="translate(616.601562 0)"/>
    </g>
   </g>
   <g id="text_13">
    <!-- axion / dark-photon lines -->
    <g style="fill: #bc6c25" transform="translate(611.91312 68.1256) scale(0.08 -0.08)">
     <defs>
      <path id="DejaVuSans-78" d="M 3513 3500 
L 2247 1797 
L 3578 0 
L 2900 0 
L 1881 1375 
L 863 0 
L 184 0 
L 1544 1831 
L 300 3500 
L 978 3500 
L 1906 2253 
L 2834 3500 
L 3513 3500 
z
" transform="scale(0.015625)"/>
      <path id="DejaVuSans-64" d="M 2906 2969 
L 2906 4863 
L 3481 4863 
L 3481 0 
L 2906 0 
L 2906 525 
Q 2725 213 2448 61 
Q 2172 -91 1784 -91 
Q 1150 -91 751 415 
Q 353 922 353 1747 
Q 353 2572 751 3078 
Q 1150 3584 1784 3584 
Q 2172 3584 2448 3432 
Q 2725 3281 2906 2969 
z
M 947 1747 
Q 947 1113 1208 752 
Q 1469 391 1925 391 
Q 2381 391 2643 752 
Q 2906 1113 2906 1747 
Q 2906 2381 2643 2742 
Q 2381 3103 1925 3103 
Q 1469 3103 1208 2742 
Q 947 2381 947 1747 
z
" transform="scale(0.015625)"/>
      <path id="DejaVuSans-2d" d="M 313 2009 
L 1997 2009 
L 1997 1497 
L 313 1497 
L 313 2009 
z
" transform="scale(0.015625)"/>
      <path id="DejaVuSans-70" d="M 1159 525 
L 1159 -1331 
L 581 -1331 
L 581 3500 
L 1159 3500 
L 1159 2969 
Q 1341 3281 1617 3432 
Q 1894 3584 2278 3584 
Q 2916 3584 3314 3078 
Q 3713 2572 3713 1747 
Q 3713 922 3314 415 
Q 2916 -91 2278 -91 
Q 1894 -91 1617 61 
Q 1341 213 1159 525 
z
M 3116 1747 
Q 3116 2381 2855 2742 
Q 2594 3103 2138 3103 
Q 1681 3103 1420 2742 
Q 1159 2381 1159 1747 
Q 1159 1113 1420 752 
Q 1681 391 2138 391 
Q 2594 391 2855 752 
Q 3116 1113 3116 1747 
z
" transform="scale(0.015625)"/>
      <path id="DejaVuSans-68" d="M 3513 2113 
L 3513 0 
L 2938 0 
L 2938 2094 
Q 2938 2591 2744 2837 
Q 2550 3084 2163 3084 
Q 1697 3084 1428 2787 
Q 1159 2491 1159 1978 
L 1159 0 
L 581 0 
L 581 4863 
L 1159 4863 
L 1159 2956 
Q 1366 3272 1645 3428 
Q 1925 3584 2291 3584 
Q 2894 3584 3203 3211 
Q 3513 2838 3513 2113 
z
" transform="scale(0.015625)"/>
     </defs>
     <use xlink:href="#DejaVuSans-61"/>
     <use xlink:href="#DejaVuSans-78" transform="translate(61.279297 0)"/>
     <use xlink:href="#DejaVuSans-69" transform="translate(120.458984 0)"/>
     <use xlink:href="#DejaVuSans-6f" transform="translate(148.242188 0)"/>
     <use xlink:href="#DejaVuSans-6e" transform="translate(209.423828 0)"/>
     <use xlink:href="#DejaVuSans-20" transform="translate(272.802734 0)"/>
     <use xlink:href="#DejaVuSans-2f" transform="translate(304.589844 0)"/>
     <use xlink:href="#DejaVuSans-20" transform="translate(338.28125 0)"/>
     <use xlink:href="#DejaVuSans-64" transform="translate(370.068359 0)"/>
     <use xlink:href="#DejaVuSans-61" transform="translate(433.544922 0)"/>
     <use xlink:href="#DejaVuSans-72" transform="translate(494.824219 0)"/>
     <use xlink:href="#DejaVuSans-6b" transform="translate(535.9375 0)"/>
     <use xlink:href="#DejaVuSans-2d" transform="translate(593.847656 0)"/>
     <use xlink:href="#DejaVuSans-70" transform="translate(629.931641 0)"/>
     <use xlink:href="#DejaVuSans-68" transform="translate(693.408203 0)"/>
     <use xlink:href="#DejaVuSans-6f" transform="translate(756.787109 0)"/>
     <use xlink:href="#DejaVuSans-74" transform="translate(817.96875 0)"/>
     <use xlink:href="#DejaVuSans-6f" transform="translate(857.177734 0)"/>
     <use xlink:href="#DejaVuSans-6e" transform="translate(918.359375 0)"/>
     <use xlink:href="#DejaVuSans-20" transform="translate(981.738281 0)"/>
     <use xlink:href="#DejaVuSans-6c" transform="translate(1013.525391 0)"/>
     <use xlink:href="#DejaVuSans-69" transform="translate(1041.308594 0)"/>
     <use xlink:href="#DejaVuSans-6e" transform="translate(1069.091797 0)"/>
     <use xlink:href="#DejaVuSans-65" transform="translate(1132.470703 0)"/>
     <use xlink:href="#DejaVuSans-73" transform="translate(1193.994141 0)"/>
    </g>
   </g>
   <g id="text_14">
    <!-- EP / fifth-force / osc-DM lines -->
    <g style="fill: #1d3557" transform="translate(133.921245 189.9876) scale(0.08 -0.08)">
     <defs>
      <path id="DejaVuSans-45" d="M 628 4666 
L 3578 4666 
L 3578 4134 
L 1259 4134 
L 1259 2753 
L 3481 2753 
L 3481 2222 
L 1259 2222 
L 1259 531 
L 3634 531 
L 3634 0 
L 628 0 
L 628 4666 
z
" transform="scale(0.015625)"/>
      <path id="DejaVuSans-50" d="M 1259 4147 
L 1259 2394 
L 2053 2394 
Q 2494 2394 2734 2622 
Q 2975 2850 2975 3272 
Q 2975 3691 2734 3919 
Q 2494 4147 2053 4147 
L 1259 4147 
z
M 628 4666 
L 2053 4666 
Q 2838 4666 3239 4311 
Q 3641 3956 3641 3272 
Q 3641 2581 3239 2228 
Q 2838 1875 2053 1875 
L 1259 1875 
L 1259 0 
L 628 0 
L 628 4666 
z
" transform="scale(0.015625)"/>
      <path id="DejaVuSans-4d" d="M 628 4666 
L 1569 4666 
L 2759 1491 
L 3956 4666 
L 4897 4666 
L 4897 0 
L 4281 0 
L 4281 4097 
L 3078 897 
L 2444 897 
L 1241 4097 
L 1241 0 
L 628 0 
L 628 4666 
z
" transform="scale(0.015625)"/>
     </defs>
     <use xlink:href="#DejaVuSans-45"/>
     <use xlink:href="#DejaVuSans-50" transform="translate(63.183594 0)"/>
     <use xlink:href="#DejaVuSans-20" transform="translate(123.486328 0)"/>
     <use xlink:href="#DejaVuSans-2f" transform="translate(155.273438 0)"/>
     <use xlink:href="#DejaVuSans-20" transform="translate(188.964844 0)"/>
     <use xlink:href="#DejaVuSans-66" transform="translate(220.751953 0)"/>
     <use xlink:href="#DejaVuSans-69" transform="translate(255.957031 0)"/>
     <use xlink:href="#DejaVuSans-66" transform="translate(283.740234 0)"/>
     <use xlink:href="#DejaVuSans-74" transform="translate(317.195312 0)"/>
     <use xlink:href="#DejaVuSans-68" transform="translate(356.404297 0)"/>
     <use xlink:href="#DejaVuSans-2d" transform="translate(419.783203 0)"/>
     <use xlink:href="#DejaVuSans-66" transform="translate(455.867188 0)"/>
     <use xlink:href="#DejaVuSans-6f" transform="translate(491.072266 0)"/>
     <use xlink:href="#DejaVuSans-72" transform="translate(552.253906 0)"/>
     <use xlink:href="#DejaVuSans-63" transform="translate(591.117188 0)"/>
     <use xlink:href="#DejaVuSans-65" transform="translate(646.097656 0)"/>
     <use xlink:href="#DejaVuSans-20" transform="translate(707.621094 0)"/>
     <use xlink:href="#DejaVuSans-2f" transform="translate(739.408203 0)"/>
     <use xlink:href="#DejaVuSans-20" transform="translate(773.099609 0)"/>
     <use xlink:href="#DejaVuSans-6f" transform="translate(804.886719 0)"/>
     <use xlink:href="#DejaVuSans-73" transform="translate(866.068359 0)"/>
     <use xlink:href="#DejaVuSans-63" transform="translate(918.167969 0)"/>
     <use xlink:href="#DejaVuSans-2d" transform="translate(973.148438 0)"/>
     <use xlink:href="#DejaVuSans-44" transform="translate(1009.232422 0)"/>
     <use xlink:href="#DejaVuSans-4d" transform="translate(1086.234375 0)"/>
     <use xlink:href="#DejaVuSans-20" transform="translate(1172.513672 0)"/>
     <use xlink:href="#DejaVuSans-6c" transform="translate(1204.300781 0)"/>
     <use xlink:href="#DejaVuSans-69" transform="translate(1232.083984 0)"/>
     <use xlink:href="#DejaVuSans-6e" transform="translate(1259.867188 0)"/>
     <use xlink:href="#DejaVuSans-65" transform="translate(1323.246094 0)"/>
     <use xlink:href="#DejaVuSans-73" transform="translate(1384.769531 0)"/>
    </g>
   </g>
   <g id="text_15">
    <!-- anomalymetric — field-sensor channel coverage -->
    <g transform="translate(252.141563 20.88) scale(0.12 -0.12)">
     <defs>
      <path id="DejaVuSans-2014" d="M 313 1978 
L 6088 1978 
L 6088 1528 
L 313 1528 
L 313 1978 
z
" transform="scale(0.015625)"/>
     </defs>
     <use xlink:href="#DejaVuSans-61"/>
     <use xlink:href="#DejaVuSans-6e" transform="translate(61.279297 0)"/>
     <use xlink:href="#DejaVuSans-6f" transform="translate(124.658203 0)"/>
     <use xlink:href="#DejaVuSans-6d" transform="translate(185.839844 0)"/>
     <use xlink:href="#DejaVuSans-61" transform="translate(283.251953 0)"/>
     <use xlink:href="#DejaVuSans-6c" transform="translate(344.53125 0)"/>
     <use xlink:href="#DejaVuSans-79" transform="translate(372.314453 0)"/>
     <use xlink:href="#DejaVuSans-6d" transform="translate(431.494141 0)"/>
     <use xlink:href="#DejaVuSans-65" transform="translate(528.90625 0)"/>
     <use xlink:href="#DejaVuSans-74" transform="translate(590.429688 0)"/>
     <use xlink:href="#DejaVuSans-72" transform="translate(629.638672 0)"/>
     <use xlink:href="#DejaVuSans-69" transform="translate(670.751953 0)"/>
     <use xlink:href="#DejaVuSans-63" transform="translate(698.535156 0)"/>
     <use xlink:href="#DejaVuSans-20" transform="translate(753.515625 0)"/>
     <use xlink:href="#DejaVuSans-2014" transform="translate(785.302734 0)"/>
     <use xlink:href="#DejaVuSans-20" transform="translate(885.302734 0)"/>
     <use xlink:href="#DejaVuSans-66" transform="translate(917.089844 0)"/>
     <use xlink:href="#DejaVuSans-69" transform="translate(952.294922 0)"/>
     <use xlink:href="#DejaVuSans-65" transform="translate(980.078125 0)"/>
     <use xlink:href="#DejaVuSans-6c" transform="translate(1041.601562 0)"/>
     <use xlink:href="#DejaVuSans-64" transform="translate(1069.384766 0)"/>
     <use xlink:href="#DejaVuSans-2d" transform="translate(1132.861328 0)"/>
     <use xlink:href="#DejaVuSans-73" transform="translate(1168.945312 0)"/>
     <use xlink:href="#DejaVuSans-65" transform="translate(1221.044922 0)"/>
     <use xlink:href="#DejaVuSans-6e" transform="translate(1282.568359 0)"/>
     <use xlink:href="#DejaVuSans-73" transform="translate(1345.947266 0)"/>
     <use xlink:href="#DejaVuSans-6f" transform="translate(1398.046875 0)"/>
     <use xlink:href="#DejaVuSans-72" transform="translate(1459.228516 0)"/>
     <use xlink:href="#DejaVuSans-20" transform="translate(1500.341797 0)"/>
     <use xlink:href="#DejaVuSans-63" transform="translate(1532.128906 0)"/>
     <use xlink:href="#DejaVuSans-68" transform="translate(1587.109375 0)"/>
     <use xlink:href="#DejaVuSans-61" transform="translate(1650.488281 0)"/>
     <use xlink:href="#DejaVuSans-6e" transform="translate(1711.767578 0)"/>
     <use xlink:href="#DejaVuSans-6e" transform="translate(1775.146484 0)"/>
     <use xlink:href="#DejaVuSans-65" transform="translate(1838.525391 0)"/>
     <use xlink:href="#DejaVuSans-6c" transform="translate(1900.048828 0)"/>
     <use xlink:href="#DejaVuSans-20" transform="translate(1927.832031 0)"/>
     <use xlink:href="#DejaVuSans-63" transform="translate(1959.619141 0)"/>
     <use xlink:href="#DejaVuSans-6f" transform="translate(2014.599609 0)"/>
     <use xlink:href="#DejaVuSans-76" transform="translate(2075.78125 0)"/>
     <use xlink:href="#DejaVuSans-65" transform="translate(2134.960938 0)"/>
     <use xlink:href="#DejaVuSans-72" transform="translate(2196.484375 0)"/>
     <use xlink:href="#DejaVuSans-61" transform="translate(2237.597656 0)"/>
     <use xlink:href="#DejaVuSans-67" transform="translate(2298.876953 0)"/>
     <use xlink:href="#DejaVuSans-65" transform="translate(2362.353516 0)"/>
    </g>
   </g>
  </g>
 </g>
 <defs>
  <clipPath id="p0c6fa80c08">
   <rect x="21.285" y="26.88" width="752.58" height="187.48"/>
  </clipPath>
 </defs>
</svg>
